<?xml version="1.0" encoding="UTF-8"?>
<svg id="Layer_1" xmlns="http://www.w3.org/2000/svg" version="1.1" viewBox="0 0 841.89 1080">
  <!-- Generator: Adobe Illustrator 29.0.0, SVG Export Plug-In . SVG Version: 2.1.0 Build 186)  -->
  <defs>
    <style>
      .st0 {
        stroke: #be2227;
      }

      .st0, .st1 {
        fill: none;
        stroke-miterlimit: 10;
      }

      .st2 {
        opacity: .25;
      }

      .st1 {
        stroke: #fff;
      }
    </style>
  </defs>
  <g class="st2">
    <g>
      <path class="st1" d="M183.19,569.11v-46.12h10.47c8.52,0,15.42-1.17,20.7-3.52,5.28-2.35,8.91-5.71,10.88-10.1,1.98-4.38,2.96-11.36,2.96-20.93v-13.06c0-9.38-.51-16.32-1.53-20.79-1.02-4.48-2.96-8.29-5.83-11.44-2.87-3.15-7.16-5.56-12.87-7.22-5.71-1.67-13.88-2.5-24.5-2.5h-39.27v135.68h38.99ZM183.19,459.08c5.06,0,8.4.77,10,2.32,1.6,1.54,2.41,4.88,2.41,10v12.32c0,5.56-.69,9.22-2.08,10.97-1.39,1.76-3.88,2.64-7.46,2.64-.8,0-1.76-.03-2.87-.09v-38.16Z"/>
      <polygon class="st1" points="278.4 569.11 278.4 520.39 290.07 520.39 290.07 569.11 329.06 569.11 329.06 433.43 290.07 433.43 290.07 487.05 278.4 487.05 278.4 433.43 239.41 433.43 239.41 569.11 278.4 569.11"/>
      <path class="st1" d="M353.16,568.26c.22.29.45.56.67.84h69.82c.31-.4.63-.79.93-1.2,3.58-4.98,5.72-10.47,6.4-16.49.68-6.01,1.02-16.25,1.02-30.71v-24.62c0-14.81-.36-25.18-1.07-31.11-.71-5.92-2.93-11.41-6.67-16.44-3.73-5.04-8.67-8.81-14.8-11.33-6.13-2.52-13.05-3.78-20.75-3.78-8.12,0-15.23,1.33-21.33,4-6.1,2.67-10.95,6.49-14.53,11.47-3.59,4.98-5.72,10.47-6.4,16.49-.68,6.02-1.02,16.25-1.02,30.71v24.62c0,14.81.36,25.18,1.07,31.11.71,5.93,2.93,11.41,6.67,16.44ZM382.84,473.42c0-7.41.52-11.87,1.56-13.38,1.04-1.51,2.53-2.27,4.49-2.27,2.31,0,3.84.93,4.58,2.8.74,1.87,1.11,6.15,1.11,12.84v66.13c0,8.47-.36,13.84-1.07,16.09-.71,2.25-2.34,3.38-4.89,3.38s-4.07-.98-4.76-2.93c-.68-1.96-1.02-7.11-1.02-15.47v-67.2Z"/>
      <polygon class="st1" points="515.96 569.11 515.96 553.37 487.35 553.37 487.35 520.39 511.7 520.39 511.7 491.87 487.35 491.87 487.35 463.43 513.37 463.43 513.37 433.43 448.36 433.43 448.36 569.11 515.96 569.11"/>
      <polygon class="st1" points="559.77 569.11 559.77 515.21 575.81 569.11 614.23 569.11 614.23 433.43 581.63 433.43 581.63 500.94 559.77 433.43 527.17 433.43 527.17 569.11 559.77 569.11"/>
      <rect class="st1" x="629.88" y="433.43" width="38.99" height="135.68"/>
      <path class="st1" d="M679.21,569.11h37.7l1.53-10.18c1.76-10.61,3.13-20.68,4.11-30.19,2.52,15.07,5.21,28.52,8.09,40.38h36.37l-17.13-69.37,13.71-66.31h-32.69l-8.34,40.94c-1.03-6.19-2.36-12.95-3.99-20.29-2.02-9.64-3.38-16.52-4.06-20.65h-37.7l14.17,66.31-11.75,69.37Z"/>
    </g>
  </g>
  <g class="st2">
    <g>
      <path class="st0" d="M108.68,480.09s3.37-22.01-3.95-42.98c-7.33-20.96-35.94-26.53-50.25-62.38,0,0-12.38,25.12,2.37,41.03,14.75,15.91,40.52,29.66,51.82,64.33Z"/>
      <path class="st0" d="M147.82,421.08s3.46-7.49-3.38-10.28c-6.84-2.79-10.96-2.35-10.99-6.01,0,0,2.41-1.26,6.73,3.01.96.95,2.25,1.53,3.57,1.84l.78.18s-1.92-11.53-10.31-13.32c-8.39-1.79-32.77-7.89-32.77-7.89,0,0,1.1,6.08,10.11,10.54,0,0-6.07-1.26-10.85-6.12l-15.54,12.07s15.9,10.67,24.11,28.42c0,0,3.31-10.38,11.09-13.63,7.78-3.25,18.65-6.65,27.45,1.18Z"/>
      <g>
        <path class="st0" d="M94.82,559.59s17.7-39.88,10.35-72.73c-11.49-51.38-91.05-74.88-90.62-128.92,0,0-18.41,42.91,7.59,73.64,3.76,4.45,25.22,22.02,28.91,41.71,0,0-31.1-4.34-39.24-36.2,0,0-6.39,34.19,12.83,51.79,26.95,24.68,58.57,25.01,70.17,70.71Z"/>
        <path class="st0" d="M105.17,486.86c-11.25-50.34-87.84-73.92-90.54-125.67.45,11.83.66,46.91,22.69,64.47,19.45,15.51,56.87,51.31,68.28,95.69,1.66-11.05,2.1-23.19-.43-34.49Z"/>
        <path class="st0" d="M51.05,473.29s-31.1-4.34-39.24-36.2c0,0,2.86,36.77,44.29,43.5l-5.06-7.34s0,.02,0,.04Z"/>
      </g>
    </g>
  </g>
</svg>