<?xml version="1.0" encoding="utf-8"?>
<!-- Generator: Adobe Illustrator 28.0.0, SVG Export Plug-In . SVG Version: 6.00 Build 0)  -->
<svg version="1.1" id="Layer_1" xmlns="http://www.w3.org/2000/svg" xmlns:xlink="http://www.w3.org/1999/xlink" x="0px" y="0px"
	 viewBox="0 0 758.8 211.2" style="enable-background:new 0 0 758.8 211.2;" xml:space="preserve">
<style type="text/css">
	.st0{opacity:0.25;}
	.st1{fill:none;stroke:#FFFFFF;stroke-miterlimit:10;}
	.st2{fill:none;stroke:#BE2227;stroke-miterlimit:10;}
</style>
<g class="st0">
	<g>
		<path class="st1" d="M175,211.2V165h10.5c8.5,0,15.4-1.2,20.7-3.5c5.3-2.3,8.9-5.7,10.9-10.1c2-4.4,3-11.4,3-20.9v-13.1
			c0-9.4-0.5-16.3-1.5-20.8c-1-4.5-3-8.3-5.8-11.4s-7.2-5.6-12.9-7.2c-5.7-1.7-13.9-2.5-24.5-2.5H136v135.7H175L175,211.2z
			 M175,101.1c5.1,0,8.4,0.8,10,2.3c1.6,1.5,2.4,4.9,2.4,10v12.3c0,5.6-0.7,9.2-2.1,11c-1.4,1.8-3.9,2.6-7.5,2.6
			c-0.8,0-1.8,0-2.9-0.1V101.1L175,101.1z"/>
		<polygon class="st1" points="270.2,211.2 270.2,162.5 281.8,162.5 281.8,211.2 320.8,211.2 320.8,75.5 281.8,75.5 281.8,129.1 
			270.2,129.1 270.2,75.5 231.2,75.5 231.2,211.2 		"/>
		<path class="st1" d="M344.9,210.3c0.2,0.3,0.5,0.6,0.7,0.8h69.8c0.3-0.4,0.6-0.8,0.9-1.2c3.6-5,5.7-10.5,6.4-16.5
			c0.7-6,1-16.2,1-30.7v-24.6c0-14.8-0.4-25.2-1.1-31.1c-0.7-5.9-2.9-11.4-6.7-16.4c-3.7-5-8.7-8.8-14.8-11.3
			c-6.1-2.5-13-3.8-20.8-3.8c-8.1,0-15.2,1.3-21.3,4c-6.1,2.7-11,6.5-14.5,11.5c-3.6,5-5.7,10.5-6.4,16.5s-1,16.2-1,30.7v24.6
			c0,14.8,0.4,25.2,1.1,31.1C339,199.8,341.2,205.3,344.9,210.3L344.9,210.3z M374.6,115.5c0-7.4,0.5-11.9,1.6-13.4s2.5-2.3,4.5-2.3
			c2.3,0,3.8,0.9,4.6,2.8s1.1,6.1,1.1,12.8v66.1c0,8.5-0.4,13.8-1.1,16.1c-0.7,2.2-2.3,3.4-4.9,3.4s-4.1-1-4.8-2.9
			c-0.7-2-1-7.1-1-15.5L374.6,115.5L374.6,115.5z"/>
		<polygon class="st1" points="507.7,211.2 507.7,195.4 479.1,195.4 479.1,162.5 503.5,162.5 503.5,133.9 479.1,133.9 479.1,105.5 
			505.1,105.5 505.1,75.5 440.1,75.5 440.1,211.2 		"/>
		<polygon class="st1" points="551.5,211.2 551.5,157.3 567.6,211.2 606,211.2 606,75.5 573.4,75.5 573.4,143 551.5,75.5 
			518.9,75.5 518.9,211.2 		"/>
		<rect x="621.7" y="75.5" class="st1" width="39" height="135.7"/>
		<path class="st1" d="M671,211.2h37.7l1.5-10.2c1.8-10.6,3.1-20.7,4.1-30.2c2.5,15.1,5.2,28.5,8.1,40.4h36.4l-17.1-69.4l13.7-66.3
			h-32.7l-8.3,40.9c-1-6.2-2.4-13-4-20.3c-2-9.6-3.4-16.5-4.1-20.6h-37.7l14.2,66.3L671,211.2L671,211.2z"/>
	</g>
</g>
<g class="st0">
	<g>
		<path class="st2" d="M100.5,122.1c0,0,3.4-22-3.9-43c-7.3-21-35.9-26.5-50.3-62.4c0,0-12.4,25.1,2.4,41S89.1,87.5,100.5,122.1
			L100.5,122.1z"/>
		<path class="st2" d="M139.6,63.1c0,0,3.5-7.5-3.4-10.3c-6.8-2.8-11-2.4-11-6c0,0,2.4-1.3,6.7,3c1,1,2.2,1.5,3.6,1.8l0.8,0.2
			c0,0-1.9-11.5-10.3-13.3s-32.8-7.9-32.8-7.9s1.1,6.1,10.1,10.5c0,0-6.1-1.3-10.8-6.1L76.9,47.2c0,0,15.9,10.7,24.1,28.4
			c0,0,3.3-10.4,11.1-13.6S130.8,55.3,139.6,63.1L139.6,63.1z"/>
		<g>
			<path class="st2" d="M86.6,201.7c0,0,17.7-39.9,10.3-72.7C85.5,77.5,5.9,54,6.3,0c0,0-18.4,42.9,7.6,73.6
				c3.8,4.5,25.2,22,28.9,41.7c0,0-31.1-4.3-39.2-36.2c0,0-6.4,34.2,12.8,51.8C43.4,155.6,75,156,86.6,201.7L86.6,201.7z"/>
			<path class="st2" d="M96.9,128.9C85.7,78.6,9.1,55,6.4,3.2c0.4,11.8,0.7,46.9,22.7,64.5C48.5,83.2,86,119,97.4,163.4
				C99,152.4,99.5,140.2,96.9,128.9z"/>
			<path class="st2" d="M42.8,115.4c0,0-31.1-4.3-39.2-36.2c0,0,2.9,36.8,44.3,43.5L42.8,115.4C42.8,115.3,42.8,115.3,42.8,115.4
				L42.8,115.4z"/>
		</g>
	</g>
</g>
</svg>
