<?xml version="1.0" encoding="UTF-8"?>
<svg id="Layer_1" xmlns="http://www.w3.org/2000/svg" version="1.1" viewBox="0 0 1080 1080">
  <!-- Generator: Adobe Illustrator 29.0.0, SVG Export Plug-In . SVG Version: 2.1.0 Build 186)  -->
  <defs>
    <style>
      .st0 {
        fill: #fff;
      }

      .st1 {
        fill: #dcd321;
      }
    </style>
  </defs>
  <g>
    <path class="st0" d="M390.2,671.89h-11.13l-4.93-13.91h-36.68l-4.93,13.91h-11.13l28.9-81.27-2.02-5.69h7.91c2.15,0,3.54.93,4.17,2.78l29.85,84.18ZM340.99,647.98h29.6l-14.74-41.68-14.86,41.68Z"/>
    <path class="st0" d="M446.05,661.96v9.93h-51.17v-76.97h-2.15l-2.53-9.99h15.75v77.04h40.1Z"/>
    <path class="st0" d="M545.22,671.89h-11.13l-4.93-13.91h-36.68l-4.93,13.91h-11.13l28.9-81.27-2.02-5.69h7.91c2.15,0,3.54.93,4.17,2.78l29.85,84.18ZM496.01,647.98h29.6l-14.74-41.68-14.86,41.68Z"/>
    <path class="st0" d="M624.41,584.92h11.13v86.97h-11.13v-60.97l-26.18,60.97h-11.07l-26.12-60.97v60.97h-11.13v-76.97h-2.15l-2.53-9.99h15.81l31.69,74,31.69-74Z"/>
    <path class="st0" d="M698.03,594.92h-38.26v33.39h34.79v9.99h-34.79v23.65h38.26v9.93h-49.4v-76.97h-2.34l-2.53-9.99h54.27v9.99Z"/>
    <path class="st0" d="M759.25,594.92h-38.26v33.39h34.79v9.99h-34.79v23.65h38.26v9.93h-49.4v-76.97h-2.34l-2.53-9.99h54.27v9.99Z"/>
    <path class="st0" d="M819.46,629.32c-1.98,1.73-4.2,3.18-6.64,4.36l15.24,38.2h-12.27l-13.98-35.1c-1.22.17-2.47.25-3.73.25h-14.1v34.85h-12.27v-77.04h-3.23l-2.28-9.93h31.88c8.39.04,15.52,2.61,21.38,7.72,5.9,5.06,8.85,11.17,8.85,18.34s-2.95,13.28-8.85,18.34ZM783.98,626.98h14.1c5.06-.08,9.4-1.67,13.03-4.74,3.58-3.12,5.38-6.85,5.38-11.19s-1.79-8.07-5.38-11.2c-3.63-3.08-7.99-4.64-13.09-4.68h-14.04v31.81Z"/>
  </g>
  <g>
    <g>
      <path class="st0" d="M371.56,508.51h7.06v13.39h-7.06v7.43c0,2.69-.31,5.23-.92,7.61-1.77,7.4-5.6,13.06-11.47,16.97-4.71,3.12-9.97,4.68-15.78,4.68l-2.93-.18c-6.67-.61-12.2-3.12-16.6-7.52-.92-.86-1.74-1.8-2.48-2.84l12.57-9.54c1.59,3.18,4.34,4.95,8.26,5.32.43.06.83.09,1.19.09,2.26,0,4.34-.61,6.24-1.83,2.57-1.77,4.31-4.53,5.23-8.26.37-1.35.55-2.84.55-4.49v-67.6l16.14-5.5c1.28,0,1.96.55,2.02,1.65l.09,20.73-2.11.83v29.08Z"/>
      <path class="st0" d="M412.29,521.9h-39.17v-13.39h39.17v13.39Z"/>
      <path class="st0" d="M447.42,521.9h-39.17v-13.39h39.17v13.39Z"/>
      <path class="st0" d="M482.55,521.9h-39.17v-13.39h39.17v13.39Z"/>
      <path class="st0" d="M517.68,521.9h-39.17v-13.39h39.17v13.39Z"/>
      <path class="st0" d="M552.81,521.9h-39.17v-13.39h39.17v13.39Z"/>
      <path class="st0" d="M599.87,508.51h12.57v13.39h-64.85v-13.39h36.14v-57.97l16.14-5.59c1.22,0,1.89.58,2.02,1.74l.09,20.73-2.11.82v40.27ZM570.61,546.57v-11.47c0-1.22.52-2.29,1.56-3.21.92-.86,2.08-1.28,3.49-1.28h12.66v11.47c0,1.22-.52,2.29-1.56,3.21-.92.86-2.08,1.28-3.49,1.28h-12.66ZM593.81,546.57v-11.47c0-1.22.52-2.29,1.56-3.21.92-.86,2.08-1.28,3.49-1.28h12.66v11.47c0,1.22-.52,2.29-1.56,3.21-.92.86-2.08,1.28-3.49,1.28h-12.66Z"/>
      <path class="st0" d="M671.96,459.71c4.46.55,8.81,2.2,13.03,4.95,3.18,2.14,5.84,4.92,7.98,8.35,2.38,3.79,4.1,8.38,5.14,13.76.67,3.67,1.01,7.31,1.01,10.92,0,4.46-.52,8.9-1.56,13.3-.86,3.79-2.2,6.88-4.04,9.26-3.06,4.04-7.22,6.05-12.47,6.05-2.02,0-5.41-.89-10.18-2.66-4.4-1.65-8.68-3.52-12.84-5.59-7.15-3.73-12.93-7.67-17.34-11.83-3.24,5.26-6.67,9.23-10.27,11.92-1.96,1.47-4.01,2.54-6.15,3.21-.8.18-1.65.34-2.57.46-.61.06-1.25.09-1.93.09h-11.37v-13.39h9.63c1.04,0,1.93-.31,2.66-.92.73-.55,1.44-1.19,2.11-1.93.98-.92,1.93-2.02,2.84-3.3,2.51-3.3,4.89-7.46,7.15-12.47l.09-.09.09-.18c.12-.31.24-.58.37-.83.43-.92.89-1.86,1.38-2.84,1.65-3,3.42-5.81,5.32-8.44,6.6-9.29,13.91-15.01,21.92-17.15,2.2-.55,4.4-.83,6.6-.83,1.16,0,2.29.06,3.39.18ZM681.59,510.61c.31-.73.58-1.62.83-2.66.79-3.3,1.19-6.66,1.19-10.09,0-2.69-.25-5.44-.73-8.26-1.22-6.73-3.58-11.22-7.06-13.48-2.02-1.34-3.91-2.14-5.69-2.39-.43-.06-.86-.09-1.28-.09-.86,0-1.71.12-2.57.37-3.36.86-6.85,3.43-10.46,7.7-1.47,1.65-2.87,3.52-4.22,5.6-1.1,1.71-2.11,3.43-3.03,5.14,2.81,4.22,8.13,8.44,15.96,12.66,3.12,1.65,6.39,3.15,9.81,4.49,1.28.55,2.57,1.04,3.85,1.47,1.04.37,1.96.64,2.75.83.18-.31.4-.73.64-1.28Z"/>
      <path class="st0" d="M718.28,388.8h.37c.18,0,.37-.03.55-.09l15.96-5.6-1.1,6.15c-.43,2.51-1.93,4.19-4.49,5.04l-26.23,9.08,1.28-6.88c.31-1.96,1.5-3.3,3.58-4.04l1.01-.37-.64.28c-1.96-2.26-2.94-4.71-2.94-7.34,0-.67.06-1.34.18-2.02.61-3.3,2.35-5.93,5.23-7.89,2.51-1.59,5.17-2.39,7.98-2.39.67,0,1.31.03,1.93.09h.18c3.06.43,4.95,1.99,5.69,4.68.18.67.28,1.32.28,1.93,0,1.83-.86,3.43-2.57,4.77l-1.65,1.19c0-1.47-.31-2.57-.92-3.3-.49-.55-1.13-.89-1.93-1.01-.37-.06-.7-.09-1.01-.09-.8,0-1.5.18-2.11.55-.98.55-1.65,1.32-2.02,2.29-.06.31-.09.64-.09,1.01,0,.73.24,1.47.73,2.2.67.92,1.59,1.5,2.75,1.74ZM782.86,493.55c2.57,4.53,5.01,8.81,7.34,12.84.92,1.65,1.38,3.27,1.38,4.86,0,1.9-.61,3.76-1.83,5.6-2.26,3.36-5.66,5.04-10.18,5.04h-58.61v-13.3c0-.98.55-1.47,1.65-1.47l.37.09c.24,0,.58-.06,1.01-.18.49-.06,1.04-.21,1.65-.46,1.65-.55,3.42-1.41,5.32-2.57,2.2-1.34,4.37-3,6.51-4.95,2.94-2.57,5.69-5.53,8.26-8.9,3.24-4.22,6.18-8.99,8.81-14.31-17.18-30.15-30.27-52.71-39.26-67.69,2.45-1.16,4.95-1.74,7.52-1.74,1.59,0,3.21.21,4.86.64,4.28,1.16,7.46,3.52,9.54,7.06,6.73,11.5,14.98,25.71,24.77,42.65,3.42-11.8,5.53-24.92,6.33-39.35v-16.05l16.14-5.6c1.28,0,1.96.58,2.02,1.74l2.29,23.85-4.31-2.29c-1.35,21.4-5.35,40.08-12.02,56.04,3.42,6.05,6.91,12.2,10.46,18.44ZM751.4,507.13h21c-2.75-4.83-5.69-9.94-8.81-15.32-3.67,5.81-7.74,10.92-12.2,15.32Z"/>
      <path class="st0" d="M823.59,397.42l2.29,23.94-4.31-2.39v86.13c0,3.61-1.16,6.85-3.49,9.72-2.26,2.93-5.29,4.98-9.08,6.15l-2.48.82h-.18c-.25,0-.43-.06-.55-.18-.25-.12-.37-.34-.37-.64v-119.7l16.14-5.5c1.22,0,1.9.55,2.02,1.65Z"/>
    </g>
    <path class="st1" d="M426.71,448.3c8.76,4.65,17.13,9.09,25.96,13.78,3.53-6.53,6.91-12.77,10.27-19.02,3.37-6.29,6.7-12.59,10-18.79-6.15-6.6-6.82-11.69-2.28-15.84,3.61-3.3,9.7-3.11,12.91.4,4.13,4.51,3.35,9.4-2.83,15.13,6.58,12.38,13.25,24.91,20.27,38.11,8.69-4.58,17.16-9.05,25.57-13.49-3.12-8.35-.72-14.03,5.88-14.59,4.41-.37,7.51,1.56,8.82,5.79,1.37,4.43-.6,9.11-5.04,10.19-3.51.85-4.09,2.96-4.69,5.64-2.56,11.61-5.27,23.2-7.61,34.86-.6,3.02-1.81,3.89-4.69,3.89-28.26-.07-56.51-.08-84.77,0-3.04.01-4.07-1.14-4.63-3.99-2.34-11.85-4.83-23.68-7.55-35.45-.38-1.66-2.05-3.67-3.61-4.29-5.37-2.12-7.93-6.76-5.9-11.73,1.7-4.14,6.83-6.18,11.06-4.4,4.58,1.93,6.19,6.93,3.82,11.94-.23.48-.49.95-.97,1.86Z"/>
  </g>
</svg>