<?xml version="1.0" encoding="utf-8"?>
<!-- Generator: Adobe Illustrator 28.0.0, SVG Export Plug-In . SVG Version: 6.00 Build 0)  -->
<svg version="1.1" id="Layer_1" xmlns="http://www.w3.org/2000/svg" xmlns:xlink="http://www.w3.org/1999/xlink" x="0px" y="0px"
	 viewBox="0 0 506.9 299.2" style="enable-background:new 0 0 506.9 299.2;" xml:space="preserve">
<style type="text/css">
	.st0{fill:#FFFFFF;}
	.st1{fill:#DCD321;}
</style>
<g>
	<path class="st0" d="M68.8,299.2H57.7l-4.9-13.9H16.1l-4.9,13.9H0l28.9-81.3l-2-5.7h7.9c2.1,0,3.5,0.9,4.2,2.8L68.8,299.2
		L68.8,299.2z M19.6,275.3h29.6l-14.7-41.7L19.6,275.3L19.6,275.3z"/>
	<path class="st0" d="M124.7,289.2v9.9H73.5v-77h-2.1l-2.5-10h15.8v77L124.7,289.2L124.7,289.2z"/>
	<path class="st0" d="M223.8,299.2h-11.1l-4.9-13.9h-36.7l-4.9,13.9H155l28.9-81.3l-2-5.7h7.9c2.1,0,3.5,0.9,4.2,2.8L223.8,299.2
		L223.8,299.2z M174.6,275.3h29.6l-14.7-41.7L174.6,275.3z"/>
	<path class="st0" d="M303,212.2h11.1v87H303v-61l-26.2,61h-11.1l-26.1-61v61h-11.1v-77h-2.2l-2.5-10h15.8l31.7,74L303,212.2
		L303,212.2z"/>
	<path class="st0" d="M376.7,222.2h-38.3v33.4h34.8v10h-34.8v23.7h38.3v9.9h-49.4v-77h-2.3l-2.5-10h54.3L376.7,222.2L376.7,222.2z"
		/>
	<path class="st0" d="M437.9,222.2h-38.3v33.4h34.8v10h-34.8v23.7h38.3v9.9h-49.4v-77h-2.3l-2.5-10h54.3L437.9,222.2L437.9,222.2z"
		/>
	<path class="st0" d="M498.1,256.6c-2,1.7-4.2,3.2-6.6,4.4l15.2,38.2h-12.3l-14-35.1c-1.2,0.2-2.5,0.2-3.7,0.2h-14.1v34.8h-12.3v-77
		h-3.2l-2.3-9.9h31.9c8.4,0,15.5,2.6,21.4,7.7c5.9,5.1,8.8,11.2,8.8,18.3S504,251.5,498.1,256.6L498.1,256.6z M462.6,254.3h14.1
		c5.1-0.1,9.4-1.7,13-4.7c3.6-3.1,5.4-6.8,5.4-11.2s-1.8-8.1-5.4-11.2c-3.6-3.1-8-4.6-13.1-4.7h-14V254.3z"/>
</g>
<g>
	<g>
		<path class="st0" d="M50.2,135.8h7.1v13.4h-7.1v7.4c0,2.7-0.3,5.2-0.9,7.6c-1.8,7.4-5.6,13.1-11.5,17c-4.7,3.1-10,4.7-15.8,4.7
			l-2.9-0.2c-6.7-0.6-12.2-3.1-16.6-7.5c-0.9-0.9-1.7-1.8-2.5-2.8l12.6-9.5c1.6,3.2,4.3,5,8.3,5.3c0.4,0.1,0.8,0.1,1.2,0.1
			c2.3,0,4.3-0.6,6.2-1.8c2.6-1.8,4.3-4.5,5.2-8.3c0.4-1.3,0.5-2.8,0.5-4.5V89l16.1-5.5c1.3,0,2,0.5,2,1.6l0.1,20.7l-2.1,0.8V135.8
			L50.2,135.8z"/>
		<path class="st0" d="M90.9,149.2H51.7v-13.4h39.2L90.9,149.2L90.9,149.2z"/>
		<path class="st0" d="M126,149.2H86.9v-13.4H126L126,149.2L126,149.2z"/>
		<path class="st0" d="M161.2,149.2H122v-13.4h39.2V149.2z"/>
		<path class="st0" d="M196.3,149.2h-39.2v-13.4h39.2V149.2z"/>
		<path class="st0" d="M231.4,149.2h-39.2v-13.4h39.2V149.2z"/>
		<path class="st0" d="M278.5,135.8h12.6v13.4h-64.8v-13.4h36.1v-58l16.1-5.6c1.2,0,1.9,0.6,2,1.7l0.1,20.7l-2.1,0.8L278.5,135.8
			L278.5,135.8z M249.2,173.8v-11.5c0-1.2,0.5-2.3,1.6-3.2c0.9-0.9,2.1-1.3,3.5-1.3h12.7v11.5c0,1.2-0.5,2.3-1.6,3.2
			c-0.9,0.9-2.1,1.3-3.5,1.3H249.2z M272.4,173.8v-11.5c0-1.2,0.5-2.3,1.6-3.2c0.9-0.9,2.1-1.3,3.5-1.3h12.7v11.5
			c0,1.2-0.5,2.3-1.6,3.2c-0.9,0.9-2.1,1.3-3.5,1.3H272.4z"/>
		<path class="st0" d="M350.6,87c4.5,0.5,8.8,2.2,13,5c3.2,2.1,5.8,4.9,8,8.4c2.4,3.8,4.1,8.4,5.1,13.8c0.7,3.7,1,7.3,1,10.9
			c0,4.5-0.5,8.9-1.6,13.3c-0.9,3.8-2.2,6.9-4,9.3c-3.1,4-7.2,6-12.5,6c-2,0-5.4-0.9-10.2-2.7c-4.4-1.7-8.7-3.5-12.8-5.6
			c-7.2-3.7-12.9-7.7-17.3-11.8c-3.2,5.3-6.7,9.2-10.3,11.9c-2,1.5-4,2.5-6.2,3.2c-0.8,0.2-1.7,0.3-2.6,0.5
			c-0.6,0.1-1.2,0.1-1.9,0.1H287v-13.4h9.6c1,0,1.9-0.3,2.7-0.9c0.7-0.5,1.4-1.2,2.1-1.9c1-0.9,1.9-2,2.8-3.3
			c2.5-3.3,4.9-7.5,7.2-12.5l0.1-0.1l0.1-0.2c0.1-0.3,0.2-0.6,0.4-0.8c0.4-0.9,0.9-1.9,1.4-2.8c1.7-3,3.4-5.8,5.3-8.4
			c6.6-9.3,13.9-15,21.9-17.1c2.2-0.5,4.4-0.8,6.6-0.8C348.3,86.8,349.5,86.9,350.6,87L350.6,87z M360.2,137.9
			c0.3-0.7,0.6-1.6,0.8-2.7c0.8-3.3,1.2-6.7,1.2-10.1c0-2.7-0.2-5.4-0.7-8.3c-1.2-6.7-3.6-11.2-7.1-13.5c-2-1.3-3.9-2.1-5.7-2.4
			c-0.4-0.1-0.9-0.1-1.3-0.1c-0.9,0-1.7,0.1-2.6,0.4c-3.4,0.9-6.8,3.4-10.5,7.7c-1.5,1.6-2.9,3.5-4.2,5.6c-1.1,1.7-2.1,3.4-3,5.1
			c2.8,4.2,8.1,8.4,16,12.7c3.1,1.6,6.4,3.1,9.8,4.5c1.3,0.5,2.6,1,3.8,1.5c1,0.4,2,0.6,2.8,0.8C359.7,138.9,360,138.4,360.2,137.9
			L360.2,137.9z"/>
		<path class="st0" d="M396.9,16.1h0.4c0.2,0,0.4,0,0.5-0.1l16-5.6l-1.1,6.1c-0.4,2.5-1.9,4.2-4.5,5L382,30.7l1.3-6.9
			c0.3-2,1.5-3.3,3.6-4l1-0.4l-0.6,0.3c-2-2.3-2.9-4.7-2.9-7.3c0-0.7,0.1-1.3,0.2-2c0.6-3.3,2.3-5.9,5.2-7.9c2.5-1.6,5.2-2.4,8-2.4
			c0.7,0,1.3,0,1.9,0.1h0.2c3.1,0.4,5,2,5.7,4.7c0.2,0.7,0.3,1.3,0.3,1.9c0,1.8-0.9,3.4-2.6,4.8l-1.7,1.2c0-1.5-0.3-2.6-0.9-3.3
			c-0.5-0.5-1.1-0.9-1.9-1c-0.4-0.1-0.7-0.1-1-0.1c-0.8,0-1.5,0.2-2.1,0.5c-1,0.5-1.7,1.3-2,2.3c-0.1,0.3-0.1,0.6-0.1,1
			c0,0.7,0.2,1.5,0.7,2.2C394.8,15.2,395.7,15.8,396.9,16.1L396.9,16.1z M461.5,120.8c2.6,4.5,5,8.8,7.3,12.8
			c0.9,1.6,1.4,3.3,1.4,4.9c0,1.9-0.6,3.8-1.8,5.6c-2.3,3.4-5.7,5-10.2,5h-58.6v-13.3c0-1,0.5-1.5,1.7-1.5l0.4,0.1
			c0.2,0,0.6-0.1,1-0.2c0.5-0.1,1-0.2,1.7-0.5c1.7-0.5,3.4-1.4,5.3-2.6c2.2-1.3,4.4-3,6.5-5c2.9-2.6,5.7-5.5,8.3-8.9
			c3.2-4.2,6.2-9,8.8-14.3C416,73,402.9,50.4,393.9,35.4c2.5-1.2,5-1.7,7.5-1.7c1.6,0,3.2,0.2,4.9,0.6c4.3,1.2,7.5,3.5,9.5,7.1
			c6.7,11.5,15,25.7,24.8,42.6c3.4-11.8,5.5-24.9,6.3-39.4v-16l16.1-5.6c1.3,0,2,0.6,2,1.7l2.3,23.9l-4.3-2.3
			c-1.3,21.4-5.3,40.1-12,56C454.5,108.4,458,114.6,461.5,120.8L461.5,120.8z M430,134.4h21c-2.8-4.8-5.7-9.9-8.8-15.3
			C438.5,124.9,434.5,130,430,134.4L430,134.4z"/>
		<path class="st0" d="M502.2,24.7l2.3,23.9l-4.3-2.4v86.1c0,3.6-1.2,6.9-3.5,9.7c-2.3,2.9-5.3,5-9.1,6.2l-2.5,0.8H485
			c-0.2,0-0.4-0.1-0.5-0.2c-0.2-0.1-0.4-0.3-0.4-0.6V28.5l16.1-5.5C501.4,23,502.1,23.6,502.2,24.7L502.2,24.7z"/>
	</g>
	<path class="st1" d="M105.3,75.6c8.8,4.6,17.1,9.1,26,13.8c3.5-6.5,6.9-12.8,10.3-19c3.4-6.3,6.7-12.6,10-18.8
		c-6.1-6.6-6.8-11.7-2.3-15.8c3.6-3.3,9.7-3.1,12.9,0.4c4.1,4.5,3.4,9.4-2.8,15.1c6.6,12.4,13.2,24.9,20.3,38.1
		c8.7-4.6,17.2-9,25.6-13.5c-3.1-8.4-0.7-14,5.9-14.6c4.4-0.4,7.5,1.6,8.8,5.8c1.4,4.4-0.6,9.1-5,10.2c-3.5,0.9-4.1,3-4.7,5.6
		c-2.6,11.6-5.3,23.2-7.6,34.9c-0.6,3-1.8,3.9-4.7,3.9c-28.3-0.1-56.5-0.1-84.8,0c-3,0-4.1-1.1-4.6-4c-2.3-11.9-4.8-23.7-7.5-35.5
		c-0.4-1.7-2-3.7-3.6-4.3c-5.4-2.1-7.9-6.8-5.9-11.7c1.7-4.1,6.8-6.2,11.1-4.4c4.6,1.9,6.2,6.9,3.8,11.9
		C106.1,74.2,105.8,74.7,105.3,75.6L105.3,75.6z"/>
</g>
</svg>
