<?xml version="1.0" encoding="UTF-8"?>
<svg id="Layer_1" xmlns="http://www.w3.org/2000/svg" version="1.1" viewBox="0 0 841.89 1080">
  <!-- Generator: Adobe Illustrator 29.0.0, SVG Export Plug-In . SVG Version: 2.1.0 Build 186)  -->
  <defs>
    <style>
      .st0 {
        opacity: .4;
      }

      .st1 {
        fill: #be2227;
      }
    </style>
  </defs>
  <g class="st0">
    <path class="st1" d="M780.1,621.49v-1h-3.26l1.6-65.1-4.98-4.19-.21.02c-21.56,2.52-39.7,4.64-59.86,7.05l5.12-17.15c.88-3.23-.34-6.93-2.95-9l-60.21-50.04,11.88-5.71c5.39-1.98,4.49-5.28,2.87-11.26-.19-.69-.39-1.43-.59-2.22l-9.05-33.75,34.54,7.44c3.62.56,6.17-1.7,6.81-4.2l4.29-15.36,27.29,31.29c2.23,2.88,5.59,4.17,8,3.06,1.55-.71,3.92-2.99,2.41-10.2l-11.75-63.82,15.07,8c3.06,1.75,5.86,2.34,8.08,1.71,1.71-.48,3.09-1.67,4.1-3.52l20.79-39.04v-2.13l-21.67,40.69c-.87,1.6-2.05,2.62-3.49,3.03-1.96.56-4.49,0-7.32-1.62l-16.91-8.98,12.13,65.86c1,4.78.32,8.09-1.85,9.1-1.95.9-4.88-.28-6.81-2.79l-28.53-32.71-4.79,17.16c-.43,1.68-2.31,3.99-5.66,3.48l-36.12-7.78,9.48,35.33c.21.79.41,1.53.59,2.23,1.65,6.11,2.27,8.39-2.3,10.08l-13.33,6.4,61.42,51.05c2.32,1.84,3.39,5.11,2.62,7.95l-5.55,18.6.76-.09c20.4-2.43,38.67-4.57,60.4-7.11l4.28,3.6-1.62,65.64h4.29Z"/>
  </g>
</svg>