<?xml version="1.0" encoding="UTF-8"?>
<svg id="Layer_1" xmlns="http://www.w3.org/2000/svg" version="1.1" viewBox="0 0 841.89 1080">
  <!-- Generator: Adobe Illustrator 29.0.0, SVG Export Plug-In . SVG Version: 2.1.0 Build 186)  -->
  <defs>
    <style>
      .st0 {
        opacity: .25;
      }

      .st1 {
        fill: #be2227;
      }
    </style>
  </defs>
  <g class="st0">
    <g>
      <path class="st1" d="M720.92,428.16c-5.58-15.98-18.21-26.68-32.82-39.08-18.08-15.33-38.49-32.65-52.17-65.06v2.52c13.75,31.25,33.76,48.24,51.52,63.3,14.5,12.3,27.03,22.92,32.52,38.64,10.68,30.54,8,62.77,7.03,71.29-14.57-42.82-41.64-66.4-65.56-87.25-8.32-7.25-16.17-14.09-22.72-21.15-1.02-1.1-1.93-2.23-2.8-3.38v1.66c.65.81,1.34,1.61,2.07,2.4,6.58,7.1,14.46,13.96,22.79,21.23,24.21,21.1,51.65,45.01,65.96,88.89l.65,2,.32-2.08c.06-.38,5.66-38.28-6.8-73.93Z"/>
      <path class="st1" d="M720.92,428.16c-5.58-15.98-18.21-26.68-32.82-39.08-18.08-15.33-38.49-32.65-52.17-65.06v2.53c13.75,31.25,33.76,48.23,51.52,63.29,14.5,12.3,27.03,22.92,32.52,38.64,5.8,16.59,7.64,33.58,8,46.69-7.26-36.9-41.91-66.72-65.33-86.87-7.89-6.79-14.71-12.66-18.28-17.02-4.64-5.66-7.13-14.2-8.44-22.63v5.65c1.5,6.65,3.89,13.01,7.67,17.61,3.62,4.42,10.15,10.04,18.4,17.14,24.81,21.35,62.31,53.61,66.04,93.48l1-.04c.16-13.75-1.12-34.34-8.12-54.35Z"/>
    </g>
    <path class="st1" d="M728.34,423.55l-.54-1.17c-13.85-29.95-40.89-48.34-41.16-48.52l-.58-.39,27.54-21.4.31.32c4.59,4.66,9.92,7.37,13.65,8.84-11.51-7.25-13.15-15.59-13.22-15.98l-.14-.76.75.19c.42.1,41.95,10.49,56.17,13.52,14.55,3.11,18.04,23.05,18.07,23.25l.12.74-2.07-.49c-2.6-.61-4.8-1.75-6.36-3.29-5.93-5.86-9.66-5.44-10.67-5.17.21,3.64,3.18,4.52,8.92,6.23,2.64.78,5.92,1.76,9.61,3.26,3.37,1.37,5.65,3.53,6.79,6.41,2.17,5.5-.61,11.63-.73,11.89l-.28.61-.5-.45c-14.48-12.88-32.48-7.8-46.54-1.94-12.98,5.41-18.68,22.88-18.73,23.06l-.39,1.23ZM687.76,373.42c3.94,2.8,27.46,20.27,40.43,47.44,1.54-4.07,7.47-17.76,18.89-22.52,14.16-5.91,32.26-11.02,47.06,1.65.63-1.67,2.08-6.35.45-10.48-1.03-2.61-3.13-4.58-6.23-5.84-3.65-1.49-6.9-2.45-9.52-3.23-5.99-1.78-9.61-2.86-9.65-7.53v-.31s.27-.14.27-.14c.18-.09,4.54-2.24,12.12,5.25,1.43,1.41,3.46,2.46,5.89,3.03l.58.14c-.78-3.6-4.83-19.06-17.14-21.69-13.11-2.8-49.43-11.84-55.37-13.33.8,2.53,4.26,10.7,16.85,16.93l3.5,1.73-3.82-.79c-.1-.02-10.38-2.23-18.55-10.31l-25.76,20.01Z"/>
    <g>
      <path class="st1" d="M721.7,513.51c-9.2-41.14-44.1-72.2-77.85-102.25-2.65-2.36-5.3-4.72-7.92-7.07v1.34c2.42,2.17,4.84,4.33,7.26,6.48,33.63,29.94,68.42,60.9,77.54,101.72,11.45,51.2-13.03,113.18-17.15,123.05-12.71-48.4-38.99-66.99-67.65-84.19v1.17c28.55,17.17,54.66,35.91,67.05,84.69l.36,1.4.59-1.32c.3-.69,30.27-69.18,17.78-125.02Z"/>
      <path class="st1" d="M721.7,513.51c-9.2-41.13-44.09-72.21-77.84-102.25-2.64-2.35-5.29-4.71-7.93-7.08v1.34c2.42,2.17,4.85,4.33,7.27,6.49,33.63,29.94,68.4,60.9,77.53,101.72,3.66,16.39,4.03,35.4,1.08,56.52-15.42-57.04-55.61-104.98-85.88-134.63v1.4c30.51,30.02,70.77,78.43,85.54,135.85l.61,2.38.37-2.44c3.34-22.22,3.09-42.18-.74-59.32Z"/>
      <path class="st1" d="M635.93,500.33v1.76l.06.09s-.04,0-.06-.01v1.01c.35.06.7.13,1.06.18l1.16.19-2.22-3.22Z"/>
    </g>
  </g>
</svg>