<?xml version="1.0" encoding="utf-8"?>
<svg xmlns="http://www.w3.org/2000/svg" viewBox="137.7497 95.275 195.285 196.7614" width="195.285px" height="196.761px" preserveAspectRatio="none"><path class="st0" d="M 394.428 264.446 C 399.898 265.206 405.238 270.006 405.828 275.636 C 406.148 278.696 404.978 281.986 406.178 284.826 C 407.418 287.776 410.738 289.026 412.598 291.756 C 415.738 296.366 415.608 303.086 412.008 307.416 C 409.638 310.266 406.018 311.316 405.638 315.676 C 405.138 321.366 407.218 324.306 402.668 329.456 C 401.728 330.526 400.518 331.196 399.688 332.216 L 411.318 361.476 C 411.198 363.086 409.758 364.286 408.118 363.866 L 397.058 358.406 L 392.628 370.316 C 391.678 371.566 389.858 371.706 388.778 370.486 L 376.988 341.656 C 373.208 343.146 369.118 343.126 365.338 341.656 L 354.068 369.726 C 353.068 371.776 350.658 371.916 349.528 369.866 C 347.888 366.896 347.198 362.026 345.668 358.886 C 345.578 358.706 345.498 358.526 345.308 358.426 L 334.228 363.866 C 332.118 364.246 330.678 362.576 331.308 360.516 L 337.988 343.766 C 332.428 345.926 326.588 347.476 320.678 348.396 C 262.028 357.486 211.758 307.426 220.558 248.706 C 227.988 199.096 276.558 165.896 325.698 176.576 C 366.338 185.406 395.778 222.676 394.418 264.436 L 394.428 264.446 Z M 338.428 185.596 C 320.268 178.316 300.058 177.546 281.388 183.476 L 284.088 185.966 C 289.068 186.756 294.098 187.306 299.058 188.166 C 301.118 188.526 303.288 188.476 303.248 191.206 C 303.208 194.116 301.818 198.096 301.438 201.076 C 301.198 201.666 300.478 202.056 299.908 202.296 C 297.338 203.396 294.058 203.886 291.428 204.946 L 282.468 218.566 L 267.268 229.226 L 265.608 229.686 L 247.268 231.176 L 247.588 236.896 C 248.738 238.476 253.128 241.606 253.398 243.376 C 253.108 247.526 253.178 251.936 252.748 256.056 C 252.528 258.146 251.308 259.596 249.098 258.696 L 232.408 246.126 L 228.168 238.596 C 228.048 238.506 227.858 238.816 227.788 238.956 C 227.168 240.206 226.418 244.006 226.108 245.546 C 214.898 301.526 262.338 351.706 318.778 343.726 C 326.258 342.666 334.088 340.466 340.818 337.126 L 342.878 332.006 C 339.428 329.916 336.828 326.106 336.508 322.016 C 336.238 318.516 337.778 316.326 335.908 312.866 C 334.668 310.576 332.438 309.696 330.778 307.826 C 326.348 302.816 326.498 294.606 331.308 289.896 C 333.398 287.846 335.388 287.426 336.458 284.236 C 337.288 281.756 336.678 281.036 336.508 278.766 C 335.908 270.496 342.548 263.866 350.818 264.456 C 351.698 264.516 354.828 265.586 354.698 264.196 C 354.528 262.246 354.438 258.986 354.018 257.226 C 353.938 256.916 353.838 256.606 353.558 256.416 L 348.058 253.216 C 343.948 253.886 339.978 256.026 335.828 256.136 L 315.118 246.956 C 314.228 246.216 313.938 243.436 313.688 242.236 C 312.708 237.376 311.118 230.726 310.678 225.956 C 310.628 225.376 310.578 224.726 310.748 224.166 C 313.468 221.136 316.078 217.626 318.918 214.736 C 319.768 213.866 320.278 213.086 321.578 212.936 C 323.718 212.686 327.128 212.766 329.418 212.716 C 333.148 212.636 336.888 212.756 340.618 212.766 L 341.918 213.796 L 346.978 221.776 L 364.428 224.806 C 365.118 224.886 365.708 224.566 366.328 224.376 C 370.158 223.206 374.078 221.336 377.888 220.016 C 375.448 215.366 372.128 211.166 368.658 207.236 L 360.338 213.296 L 359.538 213.366 L 337.068 204.956 C 330.978 207.506 324.018 209.756 317.688 206.646 C 315.928 205.776 313.568 204.456 314.368 202.106 C 316.278 198.756 317.828 195.136 319.748 191.796 C 320.598 190.306 320.918 189.186 322.858 188.966 C 326.198 188.596 331.948 189.326 334.898 188.496 C 335.088 188.446 337.858 186.466 338.118 186.206 C 338.328 186.006 338.518 185.936 338.438 185.576 L 338.428 185.596 Z M 297.928 193.026 L 281.908 190.496 L 275.988 185.606 C 255.148 194.006 238.068 211.256 230.108 232.306 L 235.798 242.326 C 236.578 243.336 246.038 250.636 247.348 251.346 C 247.608 251.486 247.748 251.636 248.098 251.556 L 248.498 244.926 C 248.328 244.276 243.898 240.526 243.118 239.476 C 242.498 238.636 242.428 236.706 242.368 235.556 C 242.278 233.686 242.108 230.756 242.178 228.986 C 242.258 226.876 243.998 226.536 245.668 226.326 C 251.888 225.546 258.478 225.546 264.738 224.826 L 279.068 214.976 C 282.218 210.296 285.008 205.296 288.498 200.876 L 297.038 198.076 L 297.938 193.036 L 297.928 193.026 Z M 365.138 203.826 C 365.338 203.546 363.558 201.906 363.238 201.596 C 357.548 196.186 350.798 191.786 343.838 188.206 L 336.158 193.386 L 324.218 193.956 L 319.968 202.216 C 322.948 203.806 326.748 203.296 329.898 202.396 C 332.378 201.686 334.558 200.236 337.028 199.806 L 359.108 208.046 L 365.148 203.826 L 365.138 203.826 Z M 338.598 217.656 L 322.888 217.866 L 315.848 225.676 L 315.758 226.376 L 318.968 243.436 L 336.648 251.106 C 336.908 251.166 337.168 251.106 337.418 251.066 C 340.598 250.616 345.058 248.256 348.118 247.976 C 348.608 247.936 349.138 248.166 349.598 248.316 L 358.118 253.576 C 359.348 254.976 358.968 260.356 359.418 262.346 C 363.158 256.646 369.628 253.876 376.218 256.456 C 380.928 258.306 382.168 263.086 386.078 264.406 C 386.648 264.596 389.068 265.196 389.428 264.686 C 389.768 264.206 389.408 256.486 389.308 255.236 C 388.458 244.556 385.338 233.926 380.418 224.476 L 365.998 229.796 L 364.648 229.876 L 344.498 226.276 L 343.638 225.646 L 338.598 217.646 L 338.598 217.656 Z M 362.898 265.846 C 360.678 268.076 357.838 269.546 354.638 269.776 C 350.888 270.046 348.558 268.216 344.928 270.876 C 339.308 274.996 342.608 279.096 341.508 284.416 C 341.088 286.456 339.748 289.036 338.328 290.566 C 335.918 293.156 333.148 293.566 332.548 297.936 C 331.548 305.266 338.538 305.956 340.868 311.776 C 342.878 316.806 340.088 321.066 342.708 325.196 C 346.428 331.046 351.018 327.866 356.078 328.786 C 364.218 330.266 364.338 338.806 372.648 337.826 C 377.658 337.236 379.098 330.656 385.278 329.046 C 390.418 327.706 394.768 330.906 398.958 326.186 C 402.588 322.106 399.888 318.146 401.038 313.416 C 402.578 307.066 409.258 305.646 409.858 300.606 C 410.758 293.016 404.658 292.886 401.998 287.516 C 400.208 283.916 400.818 282.016 400.988 278.366 C 401.218 273.316 397.588 269.116 392.398 269.346 C 388.928 269.496 387.428 270.256 383.808 268.806 C 378.208 266.566 377.308 259.786 370.368 260.456 C 366.138 260.866 365.438 263.286 362.908 265.826 L 362.898 265.846 Z M 351.788 361.796 L 352.218 361.276 L 361.328 338.776 C 360.658 337.026 358.898 335.066 357.168 334.266 C 354.098 332.836 350.598 334.146 347.358 333.836 L 338.438 355.976 L 338.748 356.286 L 346.058 352.576 C 347.428 352.226 348.498 352.706 349.138 353.956 C 350.268 356.146 350.888 359.436 351.788 361.806 L 351.788 361.796 Z M 395.008 333.836 C 392.178 334.096 389.028 333.106 386.298 333.866 C 383.958 334.516 382.418 336.526 381.068 338.406 L 390.368 361.786 C 390.658 361.846 390.598 361.566 390.678 361.366 C 391.328 359.766 392.978 353.916 393.858 353.096 C 394.448 352.536 395.518 352.276 396.308 352.566 L 403.928 356.286 L 394.998 333.836 L 395.008 333.836 Z" style="fill: rgb(190, 34, 39); stroke-width: 1;" id="object-0" transform="matrix(1, 0, 0, 1, -81.80300903320312, -79.29883575439453)"/></svg>