<?xml version="1.0" encoding="utf-8"?>
<svg xmlns="http://www.w3.org/2000/svg" viewBox="152.8383 148.4206 188.4794 188.9696" width="188.479px" height="188.97px" preserveAspectRatio="none"><g id="svg-1" transform="matrix(1, 0, 0, 1, -126.87813568115234, 80.13356018066406)"><path class="st0" d="M 462.423 250.937 L 462.423 91.457 C 462.423 91.267 463.093 90.087 463.323 89.887 C 465.253 88.207 468.303 89.497 468.193 92.167 L 468.193 253.467 C 467.993 255.787 466.933 256.517 464.713 256.707 L 365.103 256.707 C 362.903 256.737 361.303 253.917 362.713 252.147 C 362.863 251.967 364.513 250.937 364.623 250.937 L 462.423 250.937 Z" style="fill: rgb(187, 34, 39); stroke-width: 1;"/><path class="st0" d="M 319.383 73.817 L 319.383 168.737 C 319.383 168.877 318.483 169.817 318.223 169.977 C 316.633 170.957 315.223 170.227 314.283 168.797 C 313.853 136.187 314.243 103.457 314.083 70.807 C 314.093 69.417 315.553 68.327 316.843 68.287 L 465.663 68.287 C 467.603 68.527 468.823 71.057 467.663 72.707 C 467.513 72.927 466.253 73.817 466.133 73.817 L 319.373 73.817 L 319.383 73.817 Z" style="fill: rgb(187, 34, 39); stroke-width: 1;"/><path class="st0" d="M 291.543 186.857 C 289.173 194.937 288.323 203.577 285.953 211.627 C 285.643 212.667 284.993 215.517 284.043 215.957 C 281.843 216.977 279.173 215.187 279.813 212.687 C 282.673 203.547 283.683 192.557 286.753 183.637 C 287.303 182.037 287.733 181.497 289.493 181.337 L 351.673 181.337 C 353.233 181.487 353.863 181.787 354.303 183.267 C 357.143 192.677 358.593 202.997 361.323 212.497 C 361.773 216.387 357.733 217.797 355.983 213.997 C 353.513 208.647 352.803 198.737 351.043 192.537 C 350.823 191.757 349.533 187.427 349.263 187.117 C 349.043 186.857 348.843 186.907 348.553 186.867 C 347.503 186.737 343.003 186.697 342.053 186.877 C 341.733 186.937 340.383 188.497 340.203 188.867 C 339.793 189.707 339.743 190.887 339.763 191.807 C 339.873 197.807 341.803 204.317 342.173 210.277 C 342.303 212.417 342.673 214.777 340.723 216.027 C 338.603 217.377 337.163 214.577 336.723 212.857 C 335.183 206.877 334.753 197.107 334.453 190.847 C 334.393 189.567 334.103 188.217 334.263 186.887 L 323.463 186.887 L 323.463 213.647 C 323.463 213.777 322.813 215.277 322.643 215.467 C 321.953 216.247 320.363 216.357 319.443 215.987 C 319.093 215.847 317.943 214.657 317.943 214.367 L 317.943 186.887 L 307.623 186.887 L 303.973 214.797 C 302.493 217.287 298.883 216.297 298.793 213.407 C 299.783 204.567 301.143 195.737 301.863 186.887 L 291.543 186.887 L 291.543 186.857 Z" style="fill: rgb(187, 34, 39); stroke-width: 1;"/><path class="st0" d="M 294.183 250.937 L 346.263 250.937 L 346.263 225.137 C 346.263 225.037 347.523 223.657 347.613 223.607 C 348.863 222.817 351.283 223.567 351.533 225.157 C 351.883 227.367 351.453 230.687 351.533 233.077 C 351.753 239.267 352.433 245.587 352.033 251.797 C 351.883 254.057 351.653 256.597 348.783 256.657 C 346.563 256.707 343.813 256.247 341.593 256.217 C 327.943 256.007 314.143 257.577 300.533 257.197 C 297.813 257.117 294.123 257.037 291.483 256.647 C 290.503 256.497 289.333 255.987 289.153 254.897 C 288.673 251.967 289.243 247.077 289.153 243.857 C 288.993 238.487 287.843 230.557 288.963 225.447 C 289.683 222.147 294.183 223.437 294.183 224.907 L 294.183 250.947 L 294.183 250.937 Z" style="fill: rgb(187, 34, 39); stroke-width: 1;"/><path class="st0" d="M 334.343 118.857 C 332.433 116.827 334.543 114.047 337.013 114.127 L 397.743 114.127 C 401.513 114.557 402.013 119.237 398.463 119.667 L 335.443 119.547 C 335.123 119.317 334.583 119.127 334.333 118.857 L 334.343 118.857 Z" style="fill: rgb(187, 34, 39); stroke-width: 1;"/><path class="st0" d="M 357.733 160.287 C 371.063 160.157 384.403 160.237 397.743 160.217 C 401.823 160.677 401.883 165.327 398.463 165.747 L 336.053 165.747 C 333.193 165.207 332.903 161.577 335.633 160.507 C 342.993 160.547 350.403 160.357 357.733 160.287 L 357.733 160.287 Z" style="fill: rgb(187, 34, 39); stroke-width: 1;"/><path class="st0" d="M 413.063 161.497 C 415.813 158.617 419.333 164.127 421.273 165.727 C 421.983 166.317 424.763 168.317 425.533 168.097 L 444.203 149.787 C 446.523 147.997 449.103 150.707 448.043 153.147 L 426.313 175.097 C 425.503 175.997 424.773 175.907 423.723 175.517 C 422.043 174.897 417.063 169.817 415.623 168.257 C 414.053 166.537 410.833 163.827 413.073 161.487 L 413.063 161.497 Z" style="fill: rgb(187, 34, 39); stroke-width: 1;"/><path class="st0" d="M 444.833 196.267 C 447.213 195.717 448.863 197.807 448.143 200.047 L 425.703 222.487 C 424.563 222.887 423.633 222.537 422.703 221.887 C 420.523 220.357 415.993 215.727 414.173 213.617 C 412.853 212.077 411.143 210.177 413.213 208.317 C 416.113 205.707 419.003 210.697 420.793 212.277 C 421.423 212.827 424.943 215.237 425.553 215.127 L 443.943 196.797 C 444.203 196.547 444.483 196.337 444.833 196.257 L 444.833 196.267 Z" style="fill: rgb(187, 34, 39); stroke-width: 1;"/><path class="st0" d="M 445.073 102.437 C 447.363 101.967 448.823 104.127 448.133 106.217 L 425.693 128.657 C 425.103 128.907 424.373 128.827 423.773 128.667 C 422.433 128.307 415.443 121.257 414.173 119.787 C 412.823 118.237 411.203 116.587 413.093 114.607 C 415.793 111.777 418.853 116.677 420.533 118.227 C 421.223 118.867 424.843 121.487 425.533 121.307 L 443.693 103.217 C 444.073 102.917 444.603 102.537 445.073 102.437 Z" style="fill: rgb(187, 34, 39); stroke-width: 1;"/><path class="st0" d="M 390.853 206.127 C 392.863 206.107 398.423 205.947 399.913 207.007 C 401.813 208.367 400.793 211.597 398.413 211.997 C 393.713 212.777 381.403 212.737 376.633 212.057 C 374.883 211.807 373.523 211.017 373.623 209.067 C 373.663 208.267 374.253 207.157 374.943 206.767 C 375.893 206.227 381.943 206.607 383.603 206.547 C 385.983 206.467 388.453 206.157 390.863 206.127 L 390.853 206.127 Z" style="fill: rgb(187, 34, 39); stroke-width: 1;"/></g></svg>