<?xml version="1.0" encoding="utf-8"?>
<svg xmlns="http://www.w3.org/2000/svg" viewBox="145.2733 145.9087 195.2631 205.6785" width="195.263px"
     height="205.679px" preserveAspectRatio="none">
    <g id="Layer_1" transform="matrix(1, 0, 0, 1, -110.18317413330078, 55.09157943725586)">
        <path class="st0"
              d="M 424.167 239.82 C 423.847 239.73 423.817 239.9 423.637 240.03 C 422.477 240.83 421.037 242.78 419.847 243.81 C 417.707 245.69 415.227 247.21 412.917 248.86 C 412.817 251.8 413.627 255.37 412.297 258.12 C 411.317 260.14 409.077 261.82 406.927 262.42 C 405.747 262.75 404.787 262.63 403.657 262.93 C 404.007 270.2 398.857 275.51 391.577 275.35 C 392.047 281.18 388.737 285.28 383.177 286.61 C 382.467 286.78 380.907 286.8 380.437 287.02 C 380.217 287.12 378.247 290.39 377.707 291.02 C 372.417 297.26 366.737 296.94 359.127 295.93 C 354.417 295.3 349.887 293.95 345.427 292.37 C 343.997 292.98 342.807 294.05 341.327 294.59 C 335.987 296.53 329.687 294.38 327.207 289.17 C 326.957 288.64 326.277 286.22 326.147 286.13 C 326.057 286.06 324.177 285.69 323.957 285.68 C 323.427 285.66 322.997 285.9 322.517 285.89 C 317.637 285.79 312.947 281.02 312.507 276.23 C 305.967 277.39 299.597 273.62 298.667 266.84 C 297.427 266.78 296.237 267.06 294.977 266.96 C 288.537 266.42 283.987 260.53 285.077 254.13 C 285.347 252.53 286.477 251.22 286.847 249.67 L 281.197 241.74 L 280.687 241.96 C 277.807 251.65 264.857 254.96 258.287 246.88 C 252.577 239.85 256.677 233.28 260.347 226.67 C 267.357 214.04 275.527 202 283.047 189.67 C 285.667 185.38 288.027 180.7 290.697 176.51 C 299.777 162.23 319.697 173.26 313.607 187.44 C 313.137 188.54 311.057 191.45 311.567 192.55 C 312.207 193.93 319.107 196.79 320.757 197.24 C 328.567 199.38 330.447 197.86 337.367 195.44 C 346.757 192.16 362.407 189.24 372.007 191.82 C 378.597 193.59 384.547 196.14 391.677 195.72 C 393.307 195.62 395.547 195.62 395.087 193.34 C 394.797 191.91 392.347 188.94 391.617 187.34 C 386.597 176.35 398.807 165.04 409.277 171.15 C 414.197 174.02 419.217 183.18 422.337 188.16 C 427.687 196.69 432.627 205.47 437.847 214.07 C 441.327 219.8 446.147 226.23 449.167 231.97 C 454.537 242.19 445.117 253.49 434.077 250.21 C 429.347 248.81 426.357 243.94 424.147 239.85 L 424.167 239.82 Z M 401.627 174.5 C 396.967 175.17 394.327 181 396.107 185.17 L 431.867 242.75 C 437.537 249.85 448.497 243.41 445.157 235.13 L 408.917 176.77 C 407.047 174.69 404.337 174.1 401.627 174.49 L 401.627 174.5 Z M 300.927 174.71 C 296.827 175.18 294.637 179.47 292.607 182.57 C 281.427 199.62 272.507 218.26 261.207 235.26 C 257.367 243.71 268.207 250.6 274.157 243.58 L 309.007 185.72 C 311.287 180.09 307.127 174 300.937 174.7 L 300.927 174.71 Z M 360.847 195.74 C 353.367 196.16 335.197 199.41 329.987 204.82 C 327.407 207.5 325.677 212.36 324.067 215.72 C 322.977 218 321.237 219.48 322.667 222.23 C 324.537 225.82 331.437 223.3 334.117 221.78 C 337.937 219.63 338.227 217.68 340.707 214.71 C 343.517 211.35 345.717 213.19 349.167 212.66 C 351.617 212.28 352.687 210.3 355.717 210.63 C 361.017 211.21 371.257 217.83 376.007 220.82 C 387.507 228.07 398.347 236.3 409.387 244.2 C 410.047 244.32 410.637 244.32 411.247 244.05 C 412.347 243.57 416.647 240.15 417.737 239.19 C 418.957 238.12 421.367 236.08 420.487 234.35 L 399.147 199.77 C 398.827 199.57 394.307 200.47 393.367 200.52 C 388.607 200.8 383.607 200.22 378.997 199.11 C 372.187 197.47 368.307 195.32 360.837 195.74 L 360.847 195.74 Z M 324.527 203.03 C 320.717 202.14 316.697 201.4 313.247 199.49 C 311.497 198.52 309.747 196.36 307.597 197.77 L 283.977 237.16 L 289.957 245.28 C 293.927 242.2 295.647 237.01 299.517 233.82 C 303.957 230.15 311.127 230.65 314.857 235.09 C 315.837 236.25 316.217 237.55 317.087 238.74 C 325.117 235.09 335.857 241.07 333.677 250.55 C 333.547 251.11 332.497 253.42 332.727 253.69 C 338.077 254.3 342.237 258.47 342.607 263.89 C 342.667 264.77 342.227 267.61 342.487 268.01 C 342.667 268.29 344.827 268.69 345.387 268.89 C 351.537 271.14 354.297 278.25 351.227 284.09 C 350.437 285.59 349.087 286.61 348.277 288.07 C 352.847 289.81 357.727 291.08 362.667 291.34 C 367.477 291.6 370.767 291.62 374.027 287.76 C 374.387 287.33 375.467 286.19 375.157 285.68 L 356.697 276.08 C 354.707 274.05 356.997 271.07 359.577 272.15 L 379.307 282.06 C 384.077 282.43 388.767 278.85 385.697 273.99 C 381.187 271.35 376.467 269.09 371.897 266.56 C 370.157 265.6 365.827 263.48 364.577 262.32 C 362.337 260.25 364.767 256.98 367.347 258.29 L 388.877 270.19 C 392.727 271.3 398.277 269.59 398.537 264.96 C 398.587 264.03 398.407 262.01 397.687 261.38 L 372.477 246.44 C 370.897 244.18 372.527 241.67 375.347 242.52 C 376.687 242.92 379.957 244.96 381.357 245.76 C 387.007 248.99 392.277 252.91 397.967 256.06 C 400.537 257.48 401.877 258.42 405.057 257.82 C 409.287 257.02 408.487 252.06 407.357 249.04 C 394.287 239.37 381.147 229.35 367.057 221.17 C 364.407 219.63 358.887 216.23 356.077 215.76 C 354.077 215.42 352.167 217.11 350.017 217.5 C 348.837 217.72 344.907 217.66 344.437 217.96 C 344.267 218.07 343.247 220.03 342.917 220.48 C 339.307 225.31 332.437 229.14 326.327 229.14 C 319.467 229.14 315.517 222.6 317.987 216.36 C 319.737 211.92 322.827 207.57 324.537 203.05 L 324.527 203.03 Z M 306.197 236.3 C 302.097 236.51 301.067 239.82 298.967 242.54 C 296.447 245.78 289.457 252.81 289.887 256.9 C 290.377 261.58 296.527 263.46 299.937 260.54 L 311.957 244.39 C 313.607 240.26 310.637 236.08 306.207 236.31 L 306.197 236.3 Z M 321.737 242.61 C 318.617 243.02 315.837 247.25 314.047 249.64 C 311.817 252.62 309.817 255.78 307.667 258.81 C 306.497 260.46 303.927 263.01 303.707 264.94 C 303.167 269.86 308.137 272.84 312.397 270.69 C 316.137 268.8 321.887 259.06 324.557 255.31 C 325.597 253.86 328.637 250.58 328.887 249.12 C 329.567 245.13 325.417 242.12 321.737 242.6 L 321.737 242.61 Z M 331.607 258.61 C 326.527 258.67 322.687 266.35 320.077 270.16 C 318.377 272.63 316.597 273.63 317.797 277.15 C 319.057 280.86 324.117 282 327.167 279.77 C 328.907 278.49 336.027 268.96 336.977 266.88 C 338.827 262.86 335.997 258.57 331.617 258.62 L 331.607 258.61 Z M 340.237 273.3 C 339.697 273.39 338.657 273.89 338.207 274.21 C 336.727 275.25 332.047 281.39 331.527 283.09 C 329.747 288.91 336.997 292.76 341.457 288.81 C 342.527 287.86 347.097 281.62 347.357 280.41 C 348.317 275.87 344.697 272.55 340.247 273.3 L 340.237 273.3 Z"
              style="fill: rgb(187, 34, 39); stroke-width: 1;"/>
        <path class="st0"
              d="M 352.447 90.83 C 354.857 90.66 360.117 92.21 362.627 92.93 C 370.857 95.32 380.717 99.57 387.917 104.22 C 389.307 105.12 391.037 105.98 390.967 107.89 C 390.867 110.54 390.017 111.79 391.547 114.46 C 392.677 116.41 396.367 117.9 396.747 119.14 C 397.127 120.38 396.547 122.03 396.217 123.25 C 390.907 142.61 373.807 162.38 357.727 173.89 C 356.727 174.61 354.127 176.56 353.007 176.54 C 351.887 176.52 347.667 173.34 346.537 172.5 C 332.127 161.79 313.367 139.96 309.747 122.05 C 308.717 116.97 310.427 118.57 313.277 116.2 C 316.127 113.83 315.527 110.41 315.327 107.11 C 315.687 105.51 322.047 102.06 323.687 101.17 C 329.837 97.85 336.737 94.96 343.457 92.98 C 346.027 92.22 349.867 91.01 352.457 90.83 L 352.447 90.83 Z M 352.657 95.87 C 346.687 96.08 335.667 100.74 330.127 103.41 C 328.207 104.34 322.107 107.33 321.047 108.84 C 320.177 110.07 320.667 111.48 320.477 112.89 C 320.177 115.1 318.577 117.56 317.167 119.25 C 316.717 119.78 314.897 121.3 314.867 121.77 C 320.967 142.25 336.007 158.87 353.227 170.87 C 370.207 158.65 385.317 142.23 391.367 121.77 C 391.347 121.3 389.047 119.33 388.557 118.71 C 386.997 116.76 385.597 113.74 385.507 111.23 C 385.467 110.19 386.117 109.59 385.267 108.75 C 384.287 107.78 380.387 105.72 378.977 104.95 C 373.307 101.87 366.947 99.32 360.727 97.55 C 358.457 96.9 354.937 95.78 352.657 95.87 L 352.657 95.87 Z"
              style="fill: rgb(187, 34, 39); stroke-width: 1;"/>
        <path class="st0"
              d="M 367.347 121.51 C 369.627 120.99 371.497 123.29 370.027 125.23 L 349.967 145.33 C 348.737 146.28 348.347 146.25 347.037 145.52 C 344.927 144.34 336.787 136.38 335.987 134.29 C 335.187 132.2 336.567 130.36 338.767 131.09 C 341.307 131.93 347.287 139.98 348.567 139.73 C 352.457 136.05 356.107 132.13 359.947 128.4 C 360.277 128.08 360.687 127.89 361.007 127.57 C 362.017 126.59 366.537 121.7 367.357 121.51 L 367.347 121.51 Z"
              style="fill: rgb(187, 34, 39); stroke-width: 1;"/>
    </g>
</svg>