<?xml version="1.0" encoding="utf-8"?>
<svg xmlns="http://www.w3.org/2000/svg" viewBox="146.9372 151.6839 195.2751 210.8225" width="195.275px" height="210.822px" preserveAspectRatio="none"><g id="svg-1" transform="matrix(1, 0, 0, 1, -121.86978912353516, 50.083473205566406)"><path class="st0" d="M 397.727 272.724 L 335.557 273.234 C 334.347 272.514 332.437 260.024 331.637 257.294 C 325.697 237.024 308.347 229.574 305.517 208.084 C 299.387 161.624 343.027 124.584 387.787 140.884 C 417.147 151.574 433.347 183.454 426.057 213.734 C 422.407 228.894 411.217 234.724 404.817 247.284 C 400.757 255.254 399.517 264.084 397.727 272.724 L 397.727 272.724 Z M 393.067 268.064 C 394.467 257.044 397.927 246.394 404.457 237.334 C 410.397 229.094 417.147 224.594 420.147 213.984 C 432.587 169.884 389.337 129.784 346.367 146.364 C 321.767 155.854 308.807 179.434 310.937 205.424 C 312.527 224.884 325.057 229.634 332.747 244.574 C 336.507 251.884 338.287 260.024 339.757 268.034 L 393.077 268.074 L 393.067 268.064 Z" style="fill: rgb(190, 34, 39); stroke-width: 1;"/><path class="st0" d="M 392.237 282.644 C 393.217 283.614 393.147 285.654 392.457 286.804 C 391.847 287.734 390.347 287.844 389.337 287.954 C 379.087 289.054 353.667 289.064 343.427 287.954 C 338.327 287.404 338.327 282.344 343.427 281.794 C 354.167 280.624 377.727 280.824 388.667 281.764 C 389.747 281.854 391.457 281.874 392.237 282.644 L 392.237 282.644 Z" style="fill: rgb(190, 34, 39); stroke-width: 1;"/><path class="st0" d="M 346.867 294.124 L 385.907 294.124 C 386.247 294.124 387.697 295.844 387.657 296.554 C 388.017 297.434 386.417 299.604 385.907 299.604 L 346.867 299.604 C 346.527 299.604 345.077 297.884 345.117 297.174 L 346.867 294.124 Z" style="fill: rgb(190, 34, 39); stroke-width: 1;"/><path class="st0" d="M 382.657 306.614 C 383.637 307.584 383.567 309.624 382.877 310.774 C 382.267 311.704 380.767 311.814 379.757 311.924 C 373.967 312.544 357.997 312.654 352.387 311.864 C 348.157 311.264 347.977 306.314 353.017 305.764 C 359.337 305.074 372.657 305.184 379.087 305.734 C 380.167 305.824 381.877 305.844 382.657 306.614 Z" style="fill: rgb(190, 34, 39); stroke-width: 1;"/><path class="st0" d="M 412.727 114.074 C 415.647 113.114 416.937 116.134 416.077 118.824 C 415.447 120.774 407.247 134.594 405.717 136.554 C 403.177 139.804 400.757 138.964 400.217 135.234 C 401.977 132.484 411.057 114.624 412.727 114.074 Z" style="fill: rgb(190, 34, 39); stroke-width: 1;"/><path class="st0" d="M 318.237 114.104 C 319.217 113.824 320.147 113.834 320.827 114.694 C 323.137 120.574 331.167 129.594 332.547 135.234 C 333.147 137.674 329.917 140.224 327.047 136.554 C 325.627 134.744 317.247 120.574 316.687 118.824 C 316.137 117.094 316.147 114.694 318.237 114.104 Z" style="fill: rgb(190, 34, 39); stroke-width: 1;"/><path class="st0" d="M 447.717 149.034 C 448.307 148.934 448.857 148.794 449.447 149.024 C 450.917 149.634 451.667 150.974 451.227 152.554 C 450.627 154.594 432.877 163.794 429.727 165.344 C 427.447 165.314 426.457 161.734 428.027 160.214 C 433.187 158.524 443.107 149.794 447.727 149.034 L 447.717 149.034 Z" style="fill: rgb(190, 34, 39); stroke-width: 1;"/><path class="st0" d="M 301.827 233.304 C 305.707 232.514 306.707 235.394 304.427 237.984 C 301.247 241.584 289.497 245.464 285.357 249.104 C 282.367 250.334 280.037 247.024 282.157 244.474 L 301.827 233.304 L 301.827 233.304 Z" style="fill: rgb(190, 34, 39); stroke-width: 1;"/><path class="st0" d="M 283.327 149.024 C 284.667 148.654 285.417 149.234 286.527 149.684 C 292.367 152.034 298.767 157.634 304.747 160.214 L 305.087 163.984 C 304.727 164.514 304.207 165.114 303.577 165.264 C 301.237 165.834 286.247 155.484 282.867 154.014 C 280.707 152.934 281.087 149.624 283.317 149.014 L 283.327 149.024 Z" style="fill: rgb(190, 34, 39); stroke-width: 1;"/><path class="st0" d="M 428.467 233.244 C 429.887 232.764 431.147 233.414 432.407 233.924 C 434.167 234.644 449.937 243.664 450.617 244.474 C 452.537 246.784 450.817 249.934 447.877 249.314 C 444.917 246.884 428.787 239.514 427.677 237.284 C 427.117 236.164 426.867 233.774 428.467 233.244 Z" style="fill: rgb(190, 34, 39); stroke-width: 1;"/><path class="st0" d="M 295.157 201.664 L 270.157 201.664 C 268.357 201.664 268.357 196.184 270.157 196.184 L 294.127 196.184 C 295.867 196.184 296.087 200.334 295.157 201.664 L 295.157 201.664 Z" style="fill: rgb(190, 34, 39); stroke-width: 1;"/><path class="st0" d="M 369.127 126.674 C 369.067 127.044 368.447 127.744 368.327 128.274 L 364.447 128.274 C 364.347 127.784 363.647 126.924 363.647 126.674 L 363.647 102.704 C 364.457 100.984 369.127 101.504 369.127 102.704 C 368.267 109.934 370.287 119.804 369.127 126.674 Z" style="fill: rgb(190, 34, 39); stroke-width: 1;"/><path class="st0" d="M 437.607 201.664 C 436.947 199.724 436.227 197.074 438.777 196.324 C 440.677 195.764 460.247 195.904 462.327 196.484 C 465.547 197.384 463.527 201.664 462.607 201.664 L 437.607 201.664 L 437.607 201.664 Z" style="fill: rgb(190, 34, 39); stroke-width: 1;"/><path class="st0" d="M 393.617 160.724 C 400.837 159.684 406.577 166.274 404.207 173.404 C 403.387 175.884 401.037 176.924 400.317 178.414 C 399.417 180.284 399.187 184.054 398.217 186.594 C 396.537 191.014 393.437 194.864 391.747 199.284 C 396.557 206.794 405.857 224.394 396.057 231.014 C 387.007 237.124 374.347 228.524 366.137 224.414 C 358.577 229.034 344.017 237.234 335.887 230.454 C 327.237 223.234 336.237 206.634 341.007 199.294 C 333.297 187.914 323.797 162.714 347.467 165.464 C 354.647 166.294 360.287 171.184 366.667 173.604 C 369.877 172.484 372.447 170.104 375.487 168.684 C 378.967 167.064 384.257 166.374 386.867 164.994 C 389.147 163.794 389.677 161.304 393.597 160.734 L 393.617 160.724 Z M 395.487 166.364 C 389.987 166.394 390.717 174.204 395.487 174.224 C 400.257 174.244 400.747 166.344 395.487 166.364 Z M 344.477 194.134 L 360.237 178.744 C 360.907 178.164 361.137 177.834 360.577 176.984 C 360.277 176.534 353.557 173.194 352.457 172.774 C 331.247 164.654 338.117 183.104 344.467 194.124 L 344.477 194.134 Z M 394.467 179.754 C 388.997 178.994 387.357 175.414 385.237 170.934 L 371.857 177.364 L 387.957 194.124 C 390.717 189.654 393.277 184.924 394.467 179.754 L 394.467 179.754 Z M 366.147 181.174 L 348.657 198.684 C 348.277 200.814 364.197 216.814 366.617 216.594 C 369.827 215.384 384.497 200.874 384.107 198.684 C 382.397 195.954 367.987 180.844 366.137 181.174 L 366.147 181.174 Z M 361.587 220.824 L 344.817 204.404 C 330.317 226.344 340.187 233.914 361.587 220.824 Z M 371.177 220.824 C 376.147 223.064 389.107 231.264 393.487 225.684 C 397.327 220.794 391.057 209.454 388.317 204.724 L 386.617 205.124 L 371.167 220.824 L 371.177 220.824 Z" style="fill: rgb(190, 34, 39); stroke-width: 1;"/><path class="st0" d="M 365.537 189.464 C 374.857 188.384 380.217 201.574 371.407 207.034 C 358.067 215.294 350.007 191.264 365.537 189.464 Z M 364.807 195.624 C 361.557 196.634 361.807 202.244 365.527 202.924 C 372.047 204.104 371.657 193.504 364.807 195.624 Z" style="fill: rgb(190, 34, 39); stroke-width: 1;"/></g></svg>