<?xml version="1.0" encoding="utf-8"?>
<svg xmlns="http://www.w3.org/2000/svg" viewBox="146.6842 89.4352 227.9307 113.9703" width="227.931px" height="113.97px" preserveAspectRatio="none"><defs><clipPath id="clippath"><rect class="st3" x="501.41" y="344.29" width="22.06" height="16.53" rx="3.08" ry="3.08" style="fill: none;"/></clipPath></defs><g id="Layer_1" style="" transform="matrix(6.896543979644775, 0, 0, 6.894758224487305, -2001.7740478515625, -1603.13330078125)"><g class="st7" style="clip-path: url(&quot;#clippath&quot;);" transform="matrix(1, 0, 0, 1, -184.39325, -98.793732)"><g><path class="st5" d="M495.94,344.29v16.49h8.26v-16.49h16.51v16.49s8.26,0,8.26,0v.03h-33.05v-16.53h.03ZM517.26,350.48c-.18.02-.54.14-.68.02-.13-.11-.2-.74-.31-.92l-1.47,1.63c-.27.24-.51.04-.45-.29l.61-3.31c-.33.09-.92.61-1.26.47l-1.27-2.21c-.21.28-1.05,2.13-1.24,2.21-.34.14-.93-.38-1.26-.47l.61,3.31c.06.33-.18.53-.45.29l-1.47-1.63c-.11.18-.18.8-.31.92-.14.12-.5,0-.68-.02-.28-.09-.58-.14-.87-.19.02-.11-.1-.05-.17-.07-.02,0-.02-.06-.04-.06-.07-.02-.16,0-.24,0l.06-.06c-.17-.06-.15.13-.13.27.03.16.09.38.13.52.02.06,0,.15,0,.22l.13-.02s0,.05,0,.06c0,.02-.08.01-.07.11,0,.06.06.04.07.07.02.08-.02.2,0,.28,0,.03.2.09.13.26l.13.15c.03.15.12.3,0,.44-.07.07-.79.35-.77.39.91.78,1.9,1.49,2.81,2.27.28.24.47.3.42.72,0,.06-.06.11-.06.18,0,.01,0,.02,0,.03l-.19.61,1.35-.19s.04,0,.06,0c.47-.03.94-.15,1.4-.19.22-.02.4-.06.5.18.01.42-.04.82-.03,1.24,0,.1,0,.22,0,.32-.05.05-.03.11-.03.18-.01.52-.04,1.05-.06,1.56.03,0,.06,0,.1,0,.04,0,.09,0,.13,0,.02,0,.04,0,.06,0,.04,0,.09,0,.13,0s.09,0,.13,0l-.06-1.29c0-.09,0-.17,0-.26,0-.39,0-.79,0-1.18,0-.22-.12-.54.08-.72.09-.08.27-.04.39-.03.46.04.93.16,1.4.19.01,0,.02,0,.03,0,.28.08.58.09.87.13.01,0,.02,0,.03,0,.15.02.32.1.48.06.04-.03-.17-.53-.19-.61-.06-.21-.16-.45.02-.65l3.14-2.56s-.71-.31-.77-.39c-.12-.13-.03-.29,0-.44l.13-.15c-.07-.16.12-.23.13-.26.02-.08-.02-.2,0-.28,0-.03.06,0,.07-.07,0-.1-.06-.09-.07-.11,0-.01,0-.05,0-.06l.13.02c0-.07-.01-.15,0-.22.03-.14.1-.36.13-.52.02-.14.04-.33-.13-.27l.06.06c-.07.01-.17-.02-.24,0-.02,0-.02.06-.04.06-.07.02-.19-.05-.17.07-.29.05-.59.1-.87.19Z" style="fill: rgb(254, 253, 253);"/><rect class="st1" x="495.94" y="344.29" width="8.26" height="16.49" style="fill: rgb(253, 0, 0);"/><rect class="st1" x="520.71" y="344.29" width="8.26" height="16.49" style="fill: rgb(253, 0, 0);"/><path class="st0" d="M507.65,350.48c.18.02.54.14.68.02.13-.11.2-.74.31-.92l1.47,1.63c.27.24.51.04.45-.29l-.61-3.31c.33.09.92.61,1.26.47.19-.08,1.03-1.93,1.24-2.21l1.27,2.21c.34.14.93-.38,1.26-.47l-.61,3.31c-.06.33.18.53.45.29l1.47-1.63c.11.18.18.8.31.92.14.12.49,0,.68-.02.2-.02.47-.02.66-.07.03,0,0-.06.07-.07.16-.03.15.06.17.07.08.02.21-.01.3,0l-.03-.19c.06,0,.13,0,.19,0-.05.19-.12.39-.16.58-.07-.02-.05.05-.09.06-.08.03-.15-.04-.1.17,0,.01.12.09.06.22-.08.23-.15.54-.19.77-.03.15-.12.3,0,.44.07.07.79.35.77.39l-3.14,2.56c-.18.19-.08.43-.02.65.01.06-.02.26,0,.29h-.13v.06h.13s0-.06,0-.06c0,0,.06-.01.06.02.01.05,0,.12,0,.17-.07,0-.16-.01-.24,0-.02,0-.03.1-.12.06-.01,0-.02,0-.03,0,.02-.1-.05-.06-.11-.06-.07,0-.16.01-.22,0-.22-.05-.28-.05-.54-.06-.01,0-.02,0-.03,0,.02-.1-.05-.06-.11-.06-.23-.01-.58-.08-.81-.13-.05-.01-.09-.05-.13-.06-.14-.02-.37.03-.48,0-.04,0,0-.08-.07-.07-.03,0,0,.06-.04.07-.05.01-.1-.01-.16,0-.01,0-.18.18-.19.19-.02.03,0,.07-.01.09s-.12.08-.06.16.07-.13.13-.06c.05.06,0,1.29,0,1.5,0,.06-.03.13.06.11,0,.09,0,.17,0,.26,0,.18-.06.24-.07.3-.04.3.03.68,0,.98-.04,0-.09,0-.13,0,0-.13,0-.27,0-.4,0-.04.03-.13-.05-.11-.04.01,0,.44-.02.52-.04,0-.09,0-.13,0,.01-.19-.02-.4,0-.6.01-.15.11-.36.13-.46.03-.11,0-.36,0-.49.03,0,.09,0,.09,0,.05-.05,0-.42.03-.51-.2.02-.13.36-.13.52-.13,0-.12-.06-.13-.19,0-.1,0-.22,0-.32.1.02.06-.05.06-.11,0-.13,0-.27,0-.4.07-.02.06-.08.07-.14,0-.13,0-.3,0-.44,0-.06.01-.14,0-.2,0-.01-.13-.17-.14-.17-.08-.03-.16,0-.23,0-.03,0,0-.06-.04-.07-.07-.02-.03.06-.07.07-.11.03-.32-.02-.45,0-.11.02-.33.11-.39.13-.1.02-.25-.02-.34,0-.05.01-.04.05-.23.06-.06,0-.13-.03-.11.06-.02,0-.04,0-.06,0-.16,0-.32,0-.48,0l.03.06h-.77c.01-.11-.05-.17.06-.19,0,.03,0,.06,0,.1.07,0,.15-.02.13-.1-.04,0-.09,0-.13,0,0-.08,0-.21,0-.29,0-.01,0-.02,0-.03.03.03.12-.12.13-.12.03-.06.08-.19.07-.24,0-.02-.06-.02-.07-.04-.01-.05,0-.1,0-.15,0-.02-.3-.27-.31-.29,0-.01.03-.06.02-.06-.02-.01-.15,0-.19,0-.91-.78-1.89-1.49-2.81-2.27-.02-.04.71-.31.77-.39.12-.13.03-.29,0-.44-.05-.24-.12-.55-.19-.77-.06-.13.06-.2.06-.22.05-.21-.03-.14-.1-.17-.03-.01-.02-.08-.09-.06-.05-.19-.11-.39-.16-.58.06,0,.13,0,.19,0l-.03.19c.09-.01.22.02.3,0,.02,0,0-.09.17-.07.06,0,.04.06.07.07.17.04.47.04.66.07ZM509.36,356.21l-.05-.13c-.16.17-.05.09,0,.13.06.05-.04.17.25.13.06,0,.04-.06.07-.07.08-.02.26.05.24-.07h-.52ZM515.62,356.13s0-.06-.04-.05c0,.2-.12.09-.19.13,0,0-.08.18-.07.19.11-.04.12.05.14.05.15.08.05-.14.12-.23.03-.04.15,0,.1-.08,0,0-.04,0-.05-.01ZM510.39,356.28h-.19v.06h.19v-.06ZM509.87,356.34h-.13v.06h.13v-.06ZM515.22,356.34h-.19v.06h.19v-.06ZM512.32,357.95s-.02-.09-.03-.06c-.02.05.02.09.03.06ZM512.52,358.56h-.06v.16h.06v-.16Z" style="fill: rgb(252, 1, 2);"/><path class="st2" d="M512.65,358.21c-.1.02-.06-.05-.06-.11,0-.21.05-1.44,0-1.5-.06-.07-.07.13-.13.06s.05-.13.06-.16,0-.07.01-.09c0-.01.18-.19.19-.19.06-.02.12,0,.16,0,.03,0,0-.06.04-.07.07-.02.03.06.07.07.11.03.34-.02.48,0,.05,0,.08.05.13.06.23.05.58.12.81.13.06,0,.13-.03.11.06-.47-.03-.94-.15-1.4-.19-.12-.01-.3-.05-.39.03-.2.18-.08.5-.08.72,0,.39,0,.79,0,1.18Z" style="fill: rgb(238, 16, 20);"/><path class="st2" d="M510.39,356.47c-.02-.1.05-.06.11-.06.19-.01.18-.05.23-.06.1-.02.25.02.34,0,.06-.01.28-.11.39-.13.13-.02.34.03.45,0,.04,0,0-.08.07-.07.03,0,0,.06.04.07.07.02.15-.02.23,0,.01,0,.13.16.14.17.01.06,0,.14,0,.2-.1-.02-.06.05-.06.11,0,.16,0,.31,0,.47,0,.13,0,.27,0,.4,0,.06.03.13-.06.11,0-.42.04-.82.03-1.24-.1-.24-.28-.2-.5-.18-.46.04-.94.16-1.4.19Z" style="fill: rgb(238, 16, 20);"/><path class="st6" d="M512.39,358.21c0-.16-.07-.49.13-.52-.03.09.01.46-.03.51,0,0-.07,0-.09,0,0,.13.03.39,0,.49-.02.1-.12.31-.13.46-.02.19.01.4,0,.6-.03,0-.06,0-.1,0,.03-.52.05-1.04.06-1.56,0-.06-.02-.13.03-.18.01.14,0,.19.13.19Z" style="fill: rgb(246, 7, 8);"/><path class="st2" d="M509.16,356.34s.09,0,.13,0c.02.08-.06.09-.13.1,0-.03,0-.06,0-.1-.12.02-.05.09-.06.19h.77s-.03-.06-.03-.06c.16,0,.32,0,.48,0l-1.35.19.19-.61c0,.08,0,.21,0,.29Z" style="fill: rgb(238, 16, 20);"/><path class="st4" d="M506.52,351.09l-.13.02c0-.07.01-.15,0-.22-.03-.14-.1-.36-.13-.52-.02-.14-.04-.33.13-.27l-.06.06c.07.01.17-.02.24,0,.02,0,.02.06.04.06.07.02.19-.05.17.07-.09-.02-.21-.05-.29-.06-.06,0-.13,0-.19,0,.05.19.12.39.16.58.02.09.06.21.06.29Z" style="fill: rgb(240, 234, 223);"/><path class="st4" d="M518.13,350.28c-.02-.11.1-.05.17-.07.02,0,.02-.06.04-.06.07-.02.16,0,.24,0l-.06-.06c.17-.06.15.13.13.27-.03.16-.09.38-.13.52-.02.06,0,.15,0,.22l-.13-.02c0-.08.04-.2.06-.29.05-.19.11-.39.16-.58-.06,0-.13,0-.19,0-.08.01-.2.05-.29.06Z" style="fill: rgb(240, 234, 223);"/><path class="st6" d="M512.65,358.47l.06,1.29s-.09,0-.13,0c.03-.31-.04-.69,0-.98,0-.06.06-.12.07-.3Z" style="fill: rgb(246, 7, 8);"/><path class="st2" d="M518.42,350.22l.03.19c-.09-.01-.22.02-.3,0-.02,0,0-.09-.17-.07-.06,0-.04.06-.07.07-.18.04-.46.04-.66.07.28-.09.58-.14.87-.19.09-.02.21-.05.29-.06Z" style="fill: rgb(238, 16, 20);"/><path class="st2" d="M506.78,350.28c.29.05.59.1.87.19-.19-.02-.48-.03-.66-.07-.03,0,0-.06-.07-.07-.16-.03-.15.06-.17.07-.08.02-.21-.01-.3,0l.03-.19c.08.01.2.05.29.06Z" style="fill: rgb(238, 16, 20);"/><path class="st2" d="M508.81,355.12s.17-.01.19,0c0,0-.03.04-.02.06,0,.02.31.26.31.29.01.05,0,.1,0,.15,0,.03.06.02.07.04.01.06-.04.18-.07.24,0,0-.09.15-.13.12,0-.07.05-.12.06-.18.05-.42-.14-.48-.42-.72Z" style="fill: rgb(238, 16, 20);"/><path class="st4" d="M506.58,351.25c.08.23.15.53.19.77l-.13-.15c.07-.16-.12-.23-.13-.26-.02-.08.02-.2,0-.28,0-.03-.06,0-.07-.07,0-.1.06-.09.07-.11.02.03.05.07.06.1Z" style="fill: rgb(240, 234, 223);"/><path class="st4" d="M518.39,351.15s.08.02.07.11c0,.06-.06.04-.07.07-.02.08.02.2,0,.28,0,.03-.2.09-.13.26l-.13.15c.05-.24.12-.55.19-.77.01-.03.05-.07.06-.1Z" style="fill: rgb(240, 234, 223);"/><path class="st2" d="M515.74,356.05c.02.08.23.58.19.61-.16.03-.33-.05-.48-.06.09.04.1-.06.12-.06.07-.02.16,0,.24,0,0-.05.01-.12,0-.17,0-.03-.06-.02-.06-.02v.06s-.13,0-.13,0v-.06s.13,0,.13,0c-.02-.03.01-.23,0-.29Z" style="fill: rgb(238, 16, 20);"/><path class="st2" d="M514.55,356.47c.25.02.32.01.54.06.06.01.15,0,.22,0,.06,0,.13-.03.11.06-.29-.04-.59-.04-.87-.13Z" style="fill: rgb(238, 16, 20);"/><path class="st2" d="M506.45,350.8c.07-.02.05.05.09.06.08.03.15-.04.1.17,0,.01-.12.09-.06.22,0-.03-.05-.07-.06-.1,0-.01,0-.05,0-.06,0-.08-.04-.2-.06-.29Z" style="fill: rgb(238, 16, 20);"/><path class="st2" d="M518.45,350.8c-.02.09-.06.21-.06.29,0,.02,0,.05,0,.06-.02.03-.05.07-.06.1.06-.13-.06-.2-.06-.22-.05-.21.03-.14.1-.17.03-.01.02-.08.09-.06Z" style="fill: rgb(238, 16, 20);"/><path class="st6" d="M512.39,359.75c.01-.07-.02-.5.02-.52.07-.02.05.07.05.11,0,.13,0,.27,0,.4-.02,0-.04,0-.06,0Z" style="fill: rgb(246, 7, 8);"/><path class="st2" d="M509.36,356.21h.52c.03.12-.16.05-.24.07-.03,0,0,.06-.07.07-.29.04-.19-.08-.25-.13-.06-.04-.17.04,0-.13l.05.13Z" style="fill: rgb(238, 16, 20);"/><path class="st2" d="M515.62,356.13s.05.01.05.01c.05.08-.07.05-.1.08-.06.08.03.31-.12.23-.01,0-.03-.09-.14-.05-.01,0,.06-.18.07-.19.07-.04.18.07.19-.13.05-.01.02.03.04.05Z" style="fill: rgb(238, 16, 20);"/><path class="st6" d="M512.39,356.6c0,.13.01.3,0,.44,0,.06,0,.12-.07.14,0-.16,0-.31,0-.47,0-.06-.03-.13.06-.11Z" style="fill: rgb(246, 7, 8);"/><rect class="st2" x="510.19" y="356.28" width=".19" height=".06" style="fill: rgb(238, 16, 20);"/><rect class="st2" x="515.03" y="356.34" width=".19" height=".06" style="fill: rgb(238, 16, 20);"/><rect class="st6" x="512.45" y="358.56" width=".06" height=".16" style="fill: rgb(246, 7, 8);"/><rect class="st2" x="509.74" y="356.34" width=".13" height=".06" style="fill: rgb(238, 16, 20);"/><path class="st6" d="M512.32,357.95s-.05-.02-.03-.06c.01-.02.05.02.03.06Z" style="fill: rgb(246, 7, 8);"/></g></g></g></svg>