<?xml version="1.0" encoding="UTF-8"?>
<svg id="Layer_1" xmlns="http://www.w3.org/2000/svg" version="1.1" xmlns:xlink="http://www.w3.org/1999/xlink" viewBox="0 0 315.52 452.97">
  <!-- Generator: Adobe Illustrator 29.0.0, SVG Export Plug-In . SVG Version: 2.1.0 Build 186)  -->
  <defs>
    <style>
      .st0 {
        fill: url(#linear-gradient2);
      }

      .st1 {
        fill: url(#linear-gradient1);
      }

      .st2 {
        fill: #bd2328;
      }

      .st3 {
        fill: url(#linear-gradient4);
      }

      .st4 {
        fill: url(#linear-gradient3);
      }

      .st5 {
        fill: url(#linear-gradient);
      }
    </style>
    <linearGradient id="linear-gradient" x1="-4487.28" y1="353.99" x2="-4435.9" y2="353.99" gradientTransform="translate(4580.25 454) scale(1 -1)" gradientUnits="userSpaceOnUse">
      <stop offset="0" stop-color="#fff" stop-opacity=".6"/>
      <stop offset="1" stop-color="#fff" stop-opacity="0"/>
    </linearGradient>
    <linearGradient id="linear-gradient1" x1="-4422.68" y1="98.6" x2="-4406.46" y2="82.92" gradientTransform="translate(4593.48 475.51) rotate(3.76) scale(1 -1)" gradientUnits="userSpaceOnUse">
      <stop offset="0" stop-color="#fff" stop-opacity=".6"/>
      <stop offset="1" stop-color="#fff" stop-opacity="0"/>
    </linearGradient>
    <linearGradient id="linear-gradient2" x1="-4401.22" y1="136.73" x2="-4353.68" y2="90.78" gradientTransform="translate(4593.48 475.51) rotate(3.76) scale(1 -1)" gradientUnits="userSpaceOnUse">
      <stop offset="0" stop-color="#fff" stop-opacity=".6"/>
      <stop offset="1" stop-color="#fff" stop-opacity="0"/>
    </linearGradient>
    <linearGradient id="linear-gradient3" x1="-4551.57" y1="531.45" x2="-4504.53" y2="531.45" gradientTransform="translate(4570.29 439.41) rotate(-2.34) scale(1 -1)" gradientUnits="userSpaceOnUse">
      <stop offset="0" stop-color="#fff" stop-opacity=".6"/>
      <stop offset="1" stop-color="#fff" stop-opacity="0"/>
    </linearGradient>
    <linearGradient id="linear-gradient4" x1="-4551.26" y1="378.48" x2="-4499.21" y2="378.48" gradientTransform="translate(4570.29 439.41) rotate(-2.34) scale(1 -1)" gradientUnits="userSpaceOnUse">
      <stop offset="0" stop-color="#fff" stop-opacity=".6"/>
      <stop offset="1" stop-color="#fff" stop-opacity="0"/>
    </linearGradient>
  </defs>
  <g>
    <path class="st2" d="M225.63,274.39c-25.39-77.87-83.28-108.77-116.41-144.5-33.13-35.73-5.33-92.16-5.33-92.16,32.13,80.53,96.41,93.03,112.87,140.12,16.46,47.09,8.88,96.54,8.88,96.54h-.01Z"/>
    <path class="st5" d="M109.22,129.89c-33.13-35.73-5.33-92.16-5.33-92.16,0,0-6.37,43.86,7.02,71.06,6.04,12.26,28.76,37.98,33.44,53.5-12.91-11.31-25.14-21.64-35.12-32.4h-.01Z"/>
    <path class="st2" d="M116.59,103.56c-16.29-19.88-12.7-65.83-12.7-65.83,32.13,80.53,96.41,93.03,112.87,140.12,9.02,25.8,10.81,52.29,10.6,70.98-6.53-69.68-91.67-121.96-110.77-145.27h0Z"/>
  </g>
  <g>
    <path class="st2" d="M313.55,141.84c-19.77-17.59-44.18-9.94-61.66-2.65s-24.91,30.61-24.91,30.61c-18.44-39.88-54.16-63.84-54.16-63.84l34.9-27.12c10.75,10.91,24.38,13.74,24.38,13.74-20.24-10.02-22.71-23.68-22.71-23.68,0,0,54.75,13.7,73.6,17.72,18.85,4.02,23.17,29.92,23.17,29.92l-1.76-.41c-2.96-.7-5.85-2-8.02-4.14-9.7-9.59-15.11-6.76-15.11-6.76.07,8.21,9.34,7.24,24.7,13.5,15.36,6.27,7.59,23.1,7.59,23.1h0Z"/>
    <g>
      <path class="st1" d="M207.73,78.85c2.99,3.03,6.2,5.42,9.28,7.32-22.62,8.91-37.79,24.57-37.79,24.57-3.93-3.13-6.39-4.78-6.39-4.78l34.9-27.12h0Z"/>
      <path class="st0" d="M220.35,84.93c-9.51-8.16-10.95-16.02-10.95-16.02,0,0,28.63,7.16,51.61,12.65-14.74-3.02-28.63-.86-40.66,3.37Z"/>
    </g>
    <path class="st2" d="M313.55,141.83c-19.77-17.59-44.18-9.94-61.66-2.65-17.48,7.29-24.91,30.61-24.91,30.61,0,0,2.16-42.87,32.81-47.71,38.56-6.09,53.76,19.75,53.76,19.75Z"/>
  </g>
  <g>
    <path class="st2" d="M194.51,452.96c-26.07-102.66-97.1-103.41-157.63-158.84C-6.3,254.58,8.05,177.79,8.05,177.79c18.28,71.59,88.14,81.33,88.14,81.33-8.29-44.23-56.48-83.71-64.94-93.7C-27.15,96.39,14.2,0,14.2,0c-.96,121.39,177.76,174.18,203.56,289.6,16.5,73.79-23.25,163.37-23.25,163.37h0Z"/>
    <path class="st4" d="M31.25,165.42C-27.15,96.39,14.2,0,14.2,0,14.2,0,11.54,114.17,51.48,185.87c-9.33-9.72-17.25-16.94-20.22-20.45h-.01Z"/>
    <path class="st3" d="M8.06,177.79s2.98,75.05,54,136.31c-8.5-5.92-16.94-12.43-25.18-19.98C-6.3,254.58,8.05,177.79,8.05,177.79h0Z"/>
    <path class="st2" d="M217.77,289.59c5.67,25.39,4.69,52.64.96,77.47-25.63-99.69-109.68-180.1-153.38-214.95C15.88,112.66,15.4,33.88,14.39,7.3c6.07,116.25,178.1,169.22,203.37,282.29h0Z"/>
    <path class="st2" d="M96.2,259.11s-.02-.08-.02-.08l11.36,16.48C14.49,260.38,8.06,177.79,8.06,177.79c18.28,71.59,88.14,81.33,88.14,81.33h0Z"/>
  </g>
</svg>