<?xml version="1.0" encoding="UTF-8"?>
<svg id="Layer_1" data-name="Layer 1" xmlns="http://www.w3.org/2000/svg" xmlns:xlink="http://www.w3.org/1999/xlink" viewBox="0 0 315.52 452.97">
  <defs>
    <style>
      .cls-1 {
        fill: url(#linear-gradient-2);
      }

      .cls-2 {
        fill: #bd2328;
      }

      .cls-3 {
        fill: url(#linear-gradient-4);
      }

      .cls-4 {
        fill: url(#linear-gradient-3);
      }

      .cls-5 {
        fill: url(#linear-gradient-5);
      }

      .cls-6 {
        fill: url(#linear-gradient);
      }
    </style>
    <linearGradient id="linear-gradient" x1="-3725.27" y1="100.01" x2="-3673.9" y2="100.01" gradientTransform="translate(-3502.73) rotate(-180) scale(1 -1)" gradientUnits="userSpaceOnUse">
      <stop offset="0" stop-color="#fff" stop-opacity=".6"/>
      <stop offset="1" stop-color="#fff" stop-opacity="0"/>
    </linearGradient>
    <linearGradient id="linear-gradient-2" x1="-3682" y1="331.07" x2="-3665.78" y2="346.75" gradientTransform="translate(-3567.08 -1.82) rotate(176.24) scale(1 -1)" xlink:href="#linear-gradient"/>
    <linearGradient id="linear-gradient-3" x1="-3660.54" y1="292.94" x2="-3613" y2="338.89" gradientTransform="translate(-3567.08 -1.82) rotate(176.24) scale(1 -1)" xlink:href="#linear-gradient"/>
    <linearGradient id="linear-gradient-4" x1="-3777.11" y1="-61.89" x2="-3730.09" y2="-61.89" gradientTransform="translate(-3461.77 1.61) rotate(-177.66) scale(1 -1)" xlink:href="#linear-gradient"/>
    <linearGradient id="linear-gradient-5" x1="-3776.8" y1="91.07" x2="-3724.77" y2="91.07" gradientTransform="translate(-3461.77 1.61) rotate(-177.66) scale(1 -1)" xlink:href="#linear-gradient"/>
  </defs>
  <g>
    <path class="cls-2" d="M89.88,274.39s-7.58-49.45,8.88-96.54c16.46-47.09,80.74-59.59,112.87-140.12,0,0,27.8,56.43-5.33,92.16-33.13,35.73-91.02,66.63-116.41,144.5Z"/>
    <path class="cls-6" d="M206.29,129.89c-9.98,10.76-22.21,21.09-35.12,32.4,4.68-15.52,27.4-41.24,33.44-53.5,13.39-27.2,7.02-71.06,7.02-71.06,0,0,27.8,56.43-5.33,92.16Z"/>
    <path class="cls-2" d="M198.93,103.56c-19.1,23.31-104.24,75.59-110.77,145.27-.21-18.69,1.58-45.18,10.6-70.98,16.46-47.09,80.74-59.59,112.87-140.12,0,0,3.59,45.95-12.7,65.83Z"/>
  </g>
  <g>
    <path class="cls-2" d="M1.96,141.83s-7.77-16.83,7.59-23.1c15.36-6.26,24.63-5.29,24.7-13.5,0,0-5.41-2.83-15.11,6.76-2.17,2.14-5.06,3.44-8.02,4.14l-1.76.41s4.32-25.9,23.17-29.92c18.85-4.02,73.6-17.72,73.6-17.72,0,0-2.47,13.66-22.71,23.68,0,0,13.63-2.83,24.38-13.74l34.9,27.12s-35.72,23.96-54.16,63.84c0,0-7.43-23.32-24.91-30.61-17.48-7.29-41.89-14.94-61.66,2.65Z"/>
    <g>
      <path class="cls-1" d="M107.79,78.84l34.9,27.12s-2.46,1.65-6.39,4.78c0,0-15.17-15.66-37.79-24.57,3.08-1.9,6.29-4.29,9.28-7.32Z"/>
      <path class="cls-4" d="M54.51,81.56c22.98-5.49,51.61-12.65,51.61-12.65,0,0-1.44,7.86-10.95,16.02-12.03-4.23-25.92-6.39-40.66-3.37Z"/>
    </g>
    <path class="cls-2" d="M55.73,122.08c30.65,4.84,32.81,47.71,32.81,47.71,0,0-7.43-23.32-24.91-30.61-17.48-7.29-41.89-14.94-61.66,2.65,0,0,15.2-25.84,53.76-19.75Z"/>
  </g>
  <g>
    <path class="cls-2" d="M121.01,452.97s-39.75-89.58-23.25-163.37C123.56,174.18,302.28,121.39,301.32,0c0,0,41.35,96.39-17.05,165.42-8.46,9.99-56.65,49.47-64.94,93.7,0,0,69.86-9.74,88.14-81.33,0,0,14.35,76.79-28.83,116.33-60.53,55.43-131.56,56.18-157.63,158.84Z"/>
    <path class="cls-3" d="M284.26,165.42c-2.97,3.51-10.89,10.73-20.22,20.45C303.98,114.17,301.32,0,301.32,0c0,0,41.35,96.39-17.05,165.42Z"/>
    <path class="cls-5" d="M307.47,177.79s14.35,76.79-28.83,116.33c-8.24,7.55-16.68,14.06-25.18,19.98,51.02-61.26,54-136.31,54-136.31Z"/>
    <path class="cls-2" d="M97.76,289.59C123.03,176.52,295.06,123.55,301.13,7.3c-1.01,26.58-1.49,105.36-50.96,144.81-43.7,34.85-127.75,115.26-153.38,214.95-3.73-24.83-4.71-52.08.96-77.47Z"/>
    <path class="cls-2" d="M219.32,259.12s69.86-9.74,88.14-81.33c0,0-6.43,82.59-99.48,97.72l11.36-16.48s-.01.05-.02.08Z"/>
  </g>
</svg>