<?xml version="1.0" encoding="UTF-8"?>
<svg id="Layer_1" data-name="Layer 1" xmlns="http://www.w3.org/2000/svg" viewBox="0 0 469.77 407.96">
  <defs>
    <style>
      .cls-1, .cls-2 {
        fill: #fff;
      }

      .cls-2, .cls-3 {
        fill-rule: evenodd;
      }

      .cls-3 {
        fill: #00a551;
      }
    </style>
  </defs>
  <path class="cls-2" d="M173.31,35.27c-6.97,3.89-13.48,14.71-16.3,25.87-10.72,42.45,40.83,60.67,43.74,81.91-2.04,2.81-4.03,3.27-4.19,6.75,3.13,2.12.91-1.43,3.29,1.9,1.26,1.77.26,2.05,2.04,3.68,7.78,7.14,15.91-15.28-9.04-41.71-9.64-10.21-19.27-23.17-18.83-39.64.33-12.26,9.36-19.3,13.42-16.38,1.12.8,5.86,3.35,6.57,4.3-6.75.37-11.26-5.98-16.94,6.09,8.08,7.34,22.88,4.17,24.97,4.47,4.22.59-.76,2.01,10.07,1.18,3.07-.22,3.99.75,5.48,2.61,1.22,8.23-8.76,14.26-13.05,17.66.87,9.37,7.14,2.31,12.2,6.04,2,1.47,5.49,7.88,8.14,11.24,7.88,10.02,8.04,12.38,24.44,12.84-2.63,2.73-3.73,2.11-5.88,3.9l2.34,11.33,15.07-18.74c2.67-3.23,4.78-5.95,7.79-9.38,2.61-2.98,5.93-5.26,8.52-8.58l-8.38,2.78c2.03-1.47,1.32-2.41,7.03-5.87,2.82-1.71,5.72-3.25,9.16-3.3l-4.67,2.75,2.48,1.68-16.93,16.21c-10.46,10.17-17.13,21.12-22.61,35.87-1.02,2.74-.95,4.39-2.99,5.42-4.1,2.07-13.95,2.85-20.04,12.66-4.16,6.7-7.45,14.9-8.77,25.52-1.32,10.62-.99,23.11,1.11,33.25,3.93,19.07,15.49,31.57,34.55,31.57,23.98,0,36.86-20.21,36.86-49.03,0-17.65-2.78-33.85-11.65-44,6.16-4.21,11.95-9.29,15.78-5.65l.02,94.66h13.97v-52.52c0-36.12,25.47-31.73,32.41-25.42,3.44,3.13,4.35,6.73,4.35,13.41v64.52l14.23-.22c0-21.23,0-42.39,0-63.55,0-12.74-.89-25.94-12.29-32.19-3.13-1.72-8.25-2.43-10.36-3.67,4.8-5.94,3.48-1.62,8.79-4.35,5.1-4.87-1.41-26.39-3.45-31.76-3.91-10.28-19.29-43.43-27.23-48.31-4.34-2.67-10.43-1.11-15.19-2.01-4.09-.78-6.17-6.89-8.15-10.48-9.08-16.44-18.57-4.33-33.08-20.29-4.39-4.82-7.64-2.95-13.77-3.31-11.18-.66-22.75-15.7-56.69-5.96-2.18-3.59-4.03-8.65-5.29-13.79-.67-2.76-1.27-5.47-1.76-8.38-.26-1.53-.36-2.89-.62-4.41-.71-4.16-1.2-3.76-1.69-4.42-.93,18.92-3.93,12.08,1.02,35.27M175.54,21.16c9.99,33.57,33.29,28.8,37.19,35.68,1.92,3.38,1.06,6.85-1.25,8.34-3.3,1.71-11.62-3.32-14.59-5.1-5.25-3.15-8.01-5.21-11.92-9.7-7.46-8.6-12.61-17.18-12.71-34.13l.57-5.4c1.23,2.78,1.75,7.1,2.71,10.31ZM241.54,42.26c4.83-6.22,17.53,3.43,11.87,15.19-3.31-9.55-.88-13.73-11.87-15.19ZM243.68,47.67c3.83-.27,7.18,3.27,5.05,8.27l-5.05-8.27ZM216.47,60.47c-2.08-9.96-2.69-6.39-6.15-9.61,4.8-1.37,11,2.1,14.32,1.61l8.87-1.7c-.86,3-.56,2.05-2.62,3.75.63,1.95,1.8,4.5.33,7.39l-2.07-5.41c-.6.73-.38.44-.95,1.5l-.49,1.02c-.32.69-.24.84-.91,2.05l-2.99-5.06-1.88,3.72-2.08-3.87c-2.02,1.93-1.69,2.92-3.37,4.61ZM242.31,52.21c.07-.44.84-1.26,1.62-1.17,1.89.38.37,6.06-1.62,1.17ZM237.24,61.88c4.04-4.59,5.94-3.42,9.64-.12-8.9-.16-4.32,2.59-9.52,5.83l-.12-5.71ZM272.89,75.43c-6.85-.06-16.87-6.79-18.89-11.31,5.85,1.41,5.76,3.83,9.14,6.4,3.83,2.91,5.89,2.99,9.75,4.91ZM210.8,92.87c4.58-5.78,8.78-6.47,9.64-18.68l4.02.02c.25,8.56-7.73,17-13.66,18.66ZM280.72,89.01c16.22-4.98,26.21-5.03,36.34,9.05,6.32,8.78,15.24,24.23,14.84,40.6-2.43-8.02-2.38-12.52-6.29-20.12-4.5-8.75-5.36-8.79-9.91-15.85-12.86-19.95-24.93-7.6-34.99-13.67ZM257.42,141.91c3.3-11.44,17.27-29.96,24.2-35.12-.63,3.52-1.37,3.18-3.06,5.02-6.88,7.48-12.94,17.62-18.64,26.35-.42.64-2.21,3.13-2.49,3.75ZM241.28,175.62c17.72-4.44,28.46,8.16,30.05,26.77,1.75,20.51-3.79,37.28-18.33,40.68-17.82,4.17-27.82-8.29-29.73-27.04-2.02-19.74,3.84-36.86,18.01-40.41Z"/>
  <path class="cls-2" d="M19.31,349.09v-67.25c0-8.6,1.1-25.76-1.3-32.43-2.26-6.26-9.36-14.65-17.47-12.37-.8,7.42-.2,68.64-.2,81.56,0,37.71-5.13,53.57,24.36,53.53h103.08c11.57.04,21.12,1.27,30.25-5.21,20.85-14.79,19.54-36.9,19.21-63.46-.06-4.62.88-2.74-1.37-3.58-3.33-1.23-13.54,3.55-16.03,12.24-3.65,12.75,3.07,21.45-7.59,32.11-7.21,7.21-19.38,5.12-30.09,5.12-13.68,0-96.81.8-102.86-.27"/>
  <path class="cls-2" d="M208.8,406.61c5.5.93,16.66.3,22.7.22,18.62-.26,34.06-13.76,37.22-38.28,1.49-11.55.98-41.06-.74-52.51-1.94-12.93-12.02-24.35-21.5-29.7-39.79-22.44-73.64,45.38-37.18,77.67,11.87,10.51,22.85,6.8,38.73,8.25-1.85,4.88-4.13,8.05-8.15,10.44-7.69,4.58-21.22-1.33-27.51,8.96-1.78,2.91-4.78,10.24-3.57,14.95M249.38,348.34c-6.1,0-12.48.22-18.54-.03-7.31-.31-9.08-.96-13.07-5.74-7.93-9.5-5.38-22.6.68-31.38,8.93-12.93,30.74-5.85,31.15,15.63.11,5.67.42,16.27-.22,21.52Z"/>
  <path class="cls-2" d="M318.32,294.2c-9.13.51-15.7,4.74-18.2,13.07-3.62,12.05,1.55,54.54-2.77,65.66-8.79,22.68-29.99,3.46-37.93,23.45-.81,2.04-1.37,4.7-1.49,7.26-.27,6.12,2.55,3.93,17.28,3.93,10.8,0,15.77.51,24.01-5.36,6.69-4.76,10.22-9.14,14.17-16.76,8.44-16.29-2.92-12.73,17.42-13.3,10.29-.29,16.34.23,24.37-5.54,5.44-3.91,10.95-10.75,14.11-17.57,4.45-9.6,4.37-16.08,4.37-28.2,0-22.08,1.7-21.76-3.74-20.84-13.31,2.25-13.79,13.77-14.28,25.88-1.15,28.57-22.13,23.21-37.31,23.21l-.02-54.9Z"/>
  <path class="cls-2" d="M85.68,227.34c-4.88,6.71-8.13,13.19-17.18,16.28-29.65,10.15-49.42-33.95-28.84-57.86,12.76-14.83,32.76-11.96,43.15,3.04,10.99,15.87,3.7,48.92,6.49,68.73h12.63c1.06-7.63.61-41.84-.03-50.5-3.37-45.71-48.66-63.81-74.37-28.33-6.35,8.76-10.8,24.02-8.74,39.7,2.04,15.51,8.95,25.82,16.31,32.18,8.63,7.47,21.42,12.39,34.56,8.78,4.35-1.2,11.94-5.13,14.64-7.99,2.39-2.54,1.37-19.43,1.37-24.03"/>
  <path class="cls-2" d="M358.31,256.6h13.12c0-12.59,0-25.19,0-37.78,0-12.99.4-21.75,5.88-30.45,9.42-14.94,29.8-19.65,43.06-3.57,9.64,11.7,11.58,27.97,5.05,41.85-8.35,17.76-31.44,26.03-47.11,4.88-1.66-2.25-1.98-3.22-3.51-5.08,0,5.63-1.39,20.42,1.14,23.67,2.45,3.14,10.06,6.95,14.49,8.16,39.14,10.73,67.3-43.91,42.81-79.97-15.75-23.2-42.93-25.15-60.3-7.18-19.16,19.83-14.65,49.68-14.65,85.45"/>
  <path class="cls-2" d="M145.05,175.57l44.95.03-30.08,42.78c-2,2.52-4.32,6.2-6.29,8.99-13.02,18.41-11.7,11.61-11.7,29.71,11.95,0,57.91.6,66.2-.22v-13.07s-45.14-.36-45.14-.36l10.72-16.72c3.49-5.44,7.28-11.22,10.95-16.85,1.95-3,21.84-31.74,21.84-34.54v-15.13h-61.44v15.4Z"/>
  <path class="cls-2" d="M435.46,294.2c-13.22.53-19.74,7.89-19.68,23.64.05,15.05.53,31.66-.02,46.54-.12,3.4-.83,6.79-1.97,9.6-1.2,2.98-2.81,4.13-4.33,6.02-4.13,5.11-7.65,5.63-14.91,5.67-21.23.09-20.62,20.01-19.37,21.38,1.44,1.57,15.73.53,18.75.53,17.24,0,27.12-4.15,37.56-24.37,5.58-10.81,3.67-27.55,3.67-42.1,0-12.15-1.12-36.18.31-46.91"/>
  <path class="cls-2" d="M450.76,239.08v111.78c0,6.96,1.92,12.53,4.88,15.89,2.47,2.8,8.56,6.35,13.66,4.9.67-6.15.61-113.32-.06-118.59-1.72-13.61-18.48-20.32-18.48-13.99"/>
  <rect class="cls-1" x="124.66" y="197.06" width="14.37" height="61.52"/>
  <path class="cls-2" d="M103.79,196.66l.75-.99c2.99-4.55,5.01-10.79,11.85-15.28,7.08-4.65,13.24-4.82,22.23-4.82v-14.97c-14.35,0-20.28-.72-31.28,8.16-15.45,12.48-7.21,12.62-3.56,27.9"/>
  <path class="cls-2" d="M159.09,49.12c.97-.92,3.86-5.69,4.05-6.89.4-2.44-1.97-5.88-2.85-8.74-1.94-6.31-1.94-15.59-2.28-22.88-1.55,2.15-2.4,6.15-3.04,9.08-2.64,12.2-.88,19.47,4.11,29.43"/>
  <path class="cls-3" d="M292.04,288.3c14.55-.12,18.73-9.74,18.01-27.23-6.81-.06-11.12,2.73-14.35,7.06-4.08,5.48-3.66,11.99-3.66,20.17"/>
  <path class="cls-3" d="M331.95,369.07c-7.92.86-10.03,2.09-14.36,7.44-4.98,6.16-3.9,18.34-3.08,19.31,2.91,3.43,12.84-4.21,14.08-6.08,3.73-5.67,3.36-12.15,3.36-20.67"/>
  <path class="cls-3" d="M338.32,369.47c-.79,16.04,3.68,27.74,17.56,26.75,1.12-8.96.19-14.05-3.34-19.89-2.21-3.67-8.04-8.5-14.22-6.86"/>
  <path class="cls-3" d="M157.88,292.47c6.8.94,11.75-2.68,14.57-6.75,3.99-5.77,3.42-11.68,3.29-20.32-17.31,2.27-17.86,12.12-17.86,27.08"/>
  <path class="cls-3" d="M127.83,196.45c9.43-.32,11.53-5.59,11.38-16.91-9.17.16-11.38,6.34-11.38,16.91"/>
</svg>