<?xml version="1.0" encoding="UTF-8"?>
<svg id="Layer_1" data-name="Layer 1" xmlns="http://www.w3.org/2000/svg" xmlns:xlink="http://www.w3.org/1999/xlink" viewBox="0 0 534.16 370.3">
  <defs>
    <style>
      .cls-1 {
        fill: url(#linear-gradient-2);
      }

      .cls-2 {
        fill: #fff;
      }

      .cls-3 {
        fill: #bd2328;
      }

      .cls-4 {
        fill: url(#linear-gradient-4);
      }

      .cls-5 {
        fill: url(#linear-gradient-3);
      }

      .cls-6 {
        fill: url(#linear-gradient-5);
      }

      .cls-7 {
        fill: #be2227;
        fill-rule: evenodd;
      }

      .cls-8 {
        fill: url(#linear-gradient);
      }
    </style>
    <linearGradient id="linear-gradient" x1="45.84" y1="192.1" x2="71.17" y2="192.1" gradientUnits="userSpaceOnUse">
      <stop offset="0" stop-color="#fff" stop-opacity=".6"/>
      <stop offset="1" stop-color="#fff" stop-opacity="0"/>
    </linearGradient>
    <linearGradient id="linear-gradient-2" x1="40.77" y1="199.38" x2="48.77" y2="207.11" gradientTransform="translate(64.58 -15.75) rotate(3.76)" xlink:href="#linear-gradient"/>
    <linearGradient id="linear-gradient-3" x1="51.35" y1="180.58" x2="74.78" y2="203.23" gradientTransform="translate(64.58 -15.75) rotate(3.76)" xlink:href="#linear-gradient"/>
    <linearGradient id="linear-gradient-4" x1="33.62" y1="180.48" x2="56.81" y2="180.48" gradientTransform="translate(-40.65 10.3) rotate(-2.34)" xlink:href="#linear-gradient"/>
    <linearGradient id="linear-gradient-5" x1="33.78" y1="255.9" x2="59.43" y2="255.9" gradientTransform="translate(-40.65 10.3) rotate(-2.34)" xlink:href="#linear-gradient"/>
  </defs>
  <path class="cls-7" d="M347.35,213.37h3.85l-1.23-49.84,3.53-2.97c15.97,1.86,30.26,3.54,46.21,5.44l-4.04-13.62c-.65-2.4.27-5.01,2.08-6.46l46.36-38.54-9.61-4.63c-4.21-1.54-3.02-3.96-1.52-9.81l7.06-26.34-26.9,5.79c-2.64.41-4.38-1.3-4.77-2.92l-3.48-12.39-21.29,24.4c-3.02,3.91-9.15,3.91-7.24-5.13l9.09-49.43-12.19,6.48c-3.44,1.95-6.84,2.27-8.79-1.22L347.35,0l-17.13,32.16c-1.91,3.49-5.34,3.18-8.76,1.23l-12.19-6.48,9.1,49.43c1.89,9.05-4.24,9.05-7.26,5.14l-21.29-24.4-3.46,12.39c-.41,1.62-2.13,3.33-4.77,2.93l-26.92-5.8,7.06,26.33c1.52,5.84,2.71,8.27-1.5,9.82l-9.63,4.62,46.36,38.53c1.84,1.46,2.78,4.08,2.13,6.47l-4.07,13.62c15.94-1.9,30.24-3.58,46.21-5.44l3.53,2.97-1.23,49.84h3.82Z"/>
  <g>
    <path class="cls-2" d="M182.14,178.13h22.07c5.97,0,10.56.47,13.77,1.41,3.21.94,5.62,2.29,7.24,4.06,1.61,1.77,2.71,3.91,3.28,6.43.57,2.52.86,6.41.86,11.69v7.34c0,5.38-.56,9.3-1.67,11.76-1.11,2.46-3.15,4.36-6.12,5.67-2.97,1.32-6.85,1.98-11.63,1.98h-5.88v33.94h-21.91v-84.27ZM204.06,192.54v21.45c.62.04,1.16.05,1.61.05,2.01,0,3.41-.49,4.19-1.48.78-.99,1.17-3.05,1.17-6.17v-6.92c0-2.88-.45-4.75-1.35-5.62-.9-.87-2.78-1.3-5.62-1.3Z"/>
    <path class="cls-2" d="M286.04,178.13v84.27h-21.91v-35.4h-6.56v35.4h-21.91v-84.27h21.91v30.14h6.56v-30.14h21.91Z"/>
    <path class="cls-2" d="M344.92,227.47c0,8.47-.2,14.46-.6,17.98-.4,3.52-1.65,6.74-3.75,9.66s-4.94,5.15-8.51,6.71c-3.57,1.56-7.74,2.34-12.49,2.34s-8.56-.74-12.15-2.21-6.48-3.69-8.67-6.64-3.49-6.16-3.9-9.63c-.42-3.47-.62-9.54-.62-18.22v-14.42c0-8.47.2-14.46.6-17.98.4-3.52,1.65-6.74,3.75-9.66,2.1-2.92,4.94-5.15,8.51-6.71,3.57-1.56,7.74-2.34,12.49-2.34,4.51,0,8.56.74,12.16,2.21,3.59,1.48,6.48,3.69,8.67,6.64,2.19,2.95,3.49,6.16,3.9,9.63.42,3.47.62,9.54.62,18.22v14.42ZM323,199.78c0-3.92-.22-6.43-.65-7.52-.43-1.09-1.33-1.64-2.68-1.64-1.15,0-2.02.44-2.63,1.33-.61.88-.91,3.5-.91,7.83v39.35c0,4.89.2,7.91.6,9.06.4,1.15,1.33,1.72,2.79,1.72s2.45-.66,2.86-1.98c.42-1.32.62-4.46.62-9.42v-38.73Z"/>
    <path class="cls-2" d="M353.09,178.13h36.54v16.87h-14.63v15.98h13.69v16.03h-13.69v18.53h16.08v16.87h-38v-84.27Z"/>
    <path class="cls-2" d="M446.32,178.13v84.27h-19.21l-11.4-38.31v38.31h-18.32v-84.27h18.32l12.29,37.95v-37.95h18.32Z"/>
    <path class="cls-2" d="M477.03,178.13v84.27h-21.92v-84.27h21.92Z"/>
    <path class="cls-2" d="M530.25,178.13l-7.7,37.27,11.61,47h-20.3c-2.43-8.4-4.65-18.64-6.66-30.71-.55,5.35-1.32,11-2.31,16.97l-2.06,13.74h-21.34l7.96-47-7.96-37.27h21.19c.39,2.32,1.15,6.19,2.28,11.6.92,4.13,1.67,7.93,2.24,11.4l4.69-23.01h18.38Z"/>
  </g>
  <g>
    <path class="cls-2" d="M228.7,287.73v16.18h-12.49v64.69h-21.03v-64.69h-12.44v-16.18h45.96Z"/>
    <path class="cls-2" d="M233.49,287.73h14.89c9.92,0,16.64.38,20.16,1.15,3.51.77,6.38,2.72,8.59,5.87,2.21,3.15,3.32,8.17,3.32,15.06,0,6.29-.78,10.52-2.35,12.69-1.57,2.17-4.65,3.46-9.24,3.9,4.16,1.03,6.96,2.42,8.39,4.15,1.43,1.73,2.32,3.32,2.67,4.77.35,1.45.53,5.44.53,11.96v21.33h-19.53v-26.88c0-4.33-.34-7.01-1.02-8.04-.68-1.03-2.47-1.55-5.37-1.55v36.47h-21.03v-80.88ZM254.52,301.56v17.98c2.36,0,4.02-.32,4.97-.97s1.42-2.76,1.42-6.32v-4.45c0-2.56-.46-4.25-1.37-5.04-.92-.8-2.59-1.2-5.02-1.2Z"/>
    <path class="cls-2" d="M324.95,287.73l12.03,80.88h-21.49l-1.13-14.54h-7.52l-1.26,14.54h-21.74l10.73-80.88h30.4ZM313.8,339.73c-1.06-9.16-2.13-20.48-3.2-33.97-2.14,15.49-3.49,26.81-4.04,33.97h7.24Z"/>
    <path class="cls-2" d="M340.54,287.73h15.74c10.16,0,17.03.47,20.61,1.4,3.58.93,6.3,2.46,8.17,4.6,1.87,2.13,3.03,4.5,3.5,7.12.47,2.62.7,7.75.7,15.41v28.32c0,7.26-.34,12.11-1.02,14.56-.68,2.45-1.87,4.36-3.57,5.75-1.7,1.38-3.8,2.35-6.29,2.9s-6.26.82-11.29.82h-26.53v-80.88ZM361.58,301.56v53.2c3.03,0,4.9-.61,5.6-1.82.7-1.21,1.05-4.52,1.05-9.92v-31.42c0-3.66-.12-6.01-.35-7.04-.23-1.03-.77-1.79-1.6-2.27-.83-.48-2.4-.72-4.7-.72Z"/>
    <path class="cls-2" d="M418.12,287.73v80.88h-21.03v-80.88h21.03Z"/>
    <path class="cls-2" d="M473.52,287.73v80.88h-18.43l-10.94-36.77v36.77h-17.58v-80.88h17.58l11.79,36.42v-36.42h17.58Z"/>
    <path class="cls-2" d="M530.22,317.5h-21.03v-7.34c0-4.63-.2-7.53-.6-8.69-.4-1.17-1.35-1.75-2.85-1.75-1.3,0-2.18.5-2.65,1.5-.47,1-.7,3.56-.7,7.69v38.81c0,3.63.23,6.02.7,7.17.47,1.15,1.4,1.72,2.8,1.72,1.53,0,2.57-.65,3.12-1.95.55-1.3.82-3.83.82-7.59v-9.59h-4.25v-12.29h24.63v43.41h-13.22l-1.95-5.79c-1.43,2.5-3.24,4.37-5.42,5.62-2.18,1.25-4.76,1.87-7.72,1.87-3.53,0-6.84-.86-9.92-2.57-3.08-1.71-5.42-3.84-7.02-6.37-1.6-2.53-2.6-5.19-3-7.97s-.6-6.95-.6-12.51v-24.03c0-7.73.42-13.34,1.25-16.83.83-3.5,3.22-6.7,7.17-9.62,3.95-2.91,9.05-4.37,15.31-4.37s11.27,1.27,15.34,3.8c4.06,2.53,6.71,5.54,7.94,9.02,1.23,3.48,1.85,8.53,1.85,15.16v3.5Z"/>
  </g>
  <g>
    <g>
      <path class="cls-3" d="M111.24,278.08s3.74-24.38-4.38-47.59c-8.11-23.22-39.81-29.38-55.65-69.08,0,0-13.71,27.82,2.63,45.44,16.34,17.62,44.87,32.85,57.39,71.24Z"/>
      <path class="cls-8" d="M53.85,206.83c4.92,5.31,10.95,10.4,17.32,15.97-2.31-7.65-13.51-20.33-16.49-26.37-6.6-13.41-3.46-35.03-3.46-35.03,0,0-13.71,27.82,2.63,45.44Z"/>
      <path class="cls-3" d="M57.48,193.85c9.42,11.49,51.39,37.27,54.61,71.62.11-9.22-.78-22.28-5.23-34.99-8.11-23.22-39.81-29.38-55.65-69.08,0,0-1.77,22.66,6.26,32.45Z"/>
    </g>
    <g>
      <path class="cls-3" d="M154.59,212.72s3.83-8.3-3.74-11.39-12.14-2.61-12.18-6.66c0,0,2.67-1.39,7.45,3.33,1.07,1.06,2.49,1.7,3.96,2.04l.87.2s-2.13-12.77-11.42-14.75c-9.29-1.98-36.29-8.74-36.29-8.74,0,0,1.22,6.74,11.2,11.67,0,0-6.72-1.39-12.02-6.77l-17.21,13.37s17.61,11.81,26.7,31.47c0,0,3.66-11.5,12.28-15.09,8.62-3.6,20.65-7.37,30.4,1.31Z"/>
      <g>
        <path class="cls-1" d="M102.41,181.67l-17.21,13.37s1.21.81,3.15,2.36c0,0,7.48-7.72,18.63-12.12-1.52-.94-3.1-2.11-4.58-3.61Z"/>
        <path class="cls-5" d="M128.68,183c-11.33-2.71-25.45-6.24-25.45-6.24,0,0,.71,3.87,5.4,7.9,5.93-2.09,12.78-3.15,20.05-1.66Z"/>
      </g>
      <path class="cls-3" d="M128.08,202.98c-15.11,2.39-16.18,23.52-16.18,23.52,0,0,3.66-11.5,12.28-15.09,8.62-3.6,20.65-7.37,30.4,1.31,0,0-7.49-12.74-26.51-9.74Z"/>
    </g>
    <g>
      <path class="cls-3" d="M95.9,366.12s19.6-44.17,11.46-80.55C94.64,228.67,6.53,202.65,7,142.8c0,0-20.39,47.52,8.41,81.55,4.17,4.93,27.93,24.39,32.02,46.2,0,0-34.44-4.8-43.46-40.1,0,0-7.07,37.86,14.21,57.36,29.84,27.33,64.86,27.7,77.71,78.31Z"/>
      <path class="cls-4" d="M15.41,224.35c1.47,1.73,5.37,5.29,9.97,10.08C5.69,199.08,7,142.8,7,142.8c0,0-20.39,47.52,8.41,81.55Z"/>
      <path class="cls-6" d="M3.97,230.45s-7.07,37.86,14.21,57.36c4.06,3.72,8.22,6.93,12.41,9.85C5.44,267.45,3.97,230.45,3.97,230.45Z"/>
      <path class="cls-3" d="M107.36,285.57C94.9,229.82,10.09,203.71,7.09,146.4c.5,13.1.74,51.95,25.12,71.39,21.55,17.18,62.98,56.83,75.62,105.97,1.84-12.24,2.32-25.68-.48-38.19Z"/>
      <path class="cls-3" d="M47.43,270.54s-34.44-4.8-43.46-40.1c0,0,3.17,40.72,49.05,48.18l-5.6-8.12s0,.03,0,.04Z"/>
    </g>
  </g>
</svg>