<?xml version="1.0" encoding="utf-8"?>
<svg xmlns="http://www.w3.org/2000/svg" viewBox="176.5699 140.1562 170.8036 102.1856" width="170.804px" height="102.186px" preserveAspectRatio="none"><defs><clipPath id="clippath"><rect class="st0" x="501.41" y="425.44" width="22.06" height="16.53" rx="3.08" ry="3.08" style="fill: none;"/></clipPath></defs><g id="Layer_1" style="" transform="matrix(6.113235950469971, 0, 0, 5.941018104553223, -1180.52685546875, -770.8612060546875)"><g class="st5" style="clip-path: url(&quot;#clippath&quot;);" transform="matrix(1, 0, 0, 1, -276.476807, -271.756317)"><g><rect x="498.49" y="436.56" width="27.92" height="5.74"/><rect class="st1" x="498.49" y="425.12" width="27.92" height="5.72" style="fill: rgb(0, 123, 57);"/><path class="st4" d="M498.49,442.3h-.02v-17.2h27.93v.02h-27.92v5.72h27.92v5.72h-27.92s0,5.74,0,5.74ZM506.67,433.22h-1.6l-.51-1.59-.52,1.59h-1.62l1.31.99-.49,1.58,1.32-.96,1.31.96-.48-1.57,1.29-.99ZM520.85,433.22l-.52-1.59-.49,1.59h-1.62l1.29.99-.48,1.57,1.31-.96,1.32.96-.49-1.58,1.31-.99h-1.62ZM511.94,433.22h-1.62l1.29.97-.49,1.61,1.33-.97,1.31.97-.48-1.61,1.29-.97h-1.62l-.51-1.57-.5,1.57Z" style="fill: rgb(254, 254, 254);"/><polygon class="st2" points="520.85 433.22 522.48 433.22 521.17 434.2 521.66 435.78 520.34 434.82 519.03 435.78 519.51 434.21 518.22 433.22 519.84 433.22 520.33 431.63 520.85 433.22" style="fill: rgb(237, 2, 35);"/><polygon class="st3" points="506.67 433.22 505.38 434.21 505.86 435.78 504.55 434.82 503.23 435.78 503.72 434.2 502.41 433.22 504.03 433.22 504.56 431.63 505.07 433.22 506.67 433.22" style="fill: rgb(237, 3, 35);"/><polygon class="st3" points="511.94 433.22 512.44 431.65 512.95 433.22 514.57 433.22 513.28 434.19 513.76 435.8 512.45 434.82 511.12 435.8 511.61 434.19 510.32 433.22 511.94 433.22" style="fill: rgb(237, 3, 35);"/></g></g></g></svg>