<?xml version="1.0" encoding="utf-8"?>
<svg xmlns="http://www.w3.org/2000/svg" viewBox="189.8621 191.0481 184.5043 95.6545" width="184.504px" height="95.6545px" preserveAspectRatio="none"><defs><clipPath id="clippath"><rect class="st2" x="501.41" y="382.93" width="22.06" height="16.53" rx="3.08" ry="3.08" style="fill: none;"/></clipPath></defs><g id="Layer_1" style="" transform="matrix(7.442687034606934, 0, 0, 5.786721229553223, -1223.2215576171875, -914.4934692382812)"><g class="st3" style="clip-path: url(&quot;#clippath&quot;);" transform="matrix(1, 0, 0, 1, -310.177979, -191.881989)"><g><path class="st1" d="M500.04,382.93h24.79v16.53h-24.79v-16.53Z" style="fill: rgb(225, 31, 38);"/><path class="st0" d="M511.54,391.19l3.74-1.21-2.31,3.18v-3.93l2.31,3.18-3.74-1.21ZM511.8,393.4c-1.22,1.93-3.77,2.5-5.7,1.28-1.93-1.22-2.5-3.77-1.28-5.7,1.22-1.93,3.77-2.5,5.7-1.28.52.33.95.77,1.28,1.28-1.22-1.36-3.31-1.47-4.67-.25-1.36,1.22-1.47,3.31-.25,4.67,1.22,1.36,3.31,1.47,4.67.25.09-.08.17-.16.25-.25Z" style="fill: rgb(255, 255, 255);"/></g></g></g></svg>